<?xml version="1.0" encoding="UTF-8"?>
<svg id="_圖層_8" data-name="圖層 8" xmlns="http://www.w3.org/2000/svg" viewBox="0 0 80 81.53">
  <defs>
    <style>
      .cls-1 {
        fill: #fff;
      }

      .cls-2 {
        fill: #8ac577;
      }

      .cls-3 {
        fill: #ecaeb1;
      }
    </style>
  </defs>
  <path class="cls-2" d="m76.67,40.19c.01.09.03.13.05.13-.01-.09-.03-.15-.05-.13Z"/>
  <polygon class="cls-1" points="80 81.53 0 81.53 0 22.59 39.71 1.53 80 22.59 80 81.53"/>
  <path class="cls-3" d="m33.36,33.01h-.7c-.13-.07-.26-.14-.24-.22-.17.07-.39.02-.64-.03-.12-.02-.26-.04-.38-.05-.12-.01-.25,0-.38.04-.11-.05.1-.04.05-.09-.07.03-.14.04-.23.03-.09-.02-.2-.04-.33-.1h.04c-.38-.12-.63-.28-.85-.46-.22-.19-.43-.41-.65-.77l-.04.1c-.09-.17-.09-.21-.11-.29-.1-.07-.05.05.02.17.06.12.15.23.03.19,0-.08-.04-.18-.1-.31-.03-.06-.06-.13-.09-.2-.03-.07-.05-.15-.08-.22-.1-.3-.14-.61-.04-.7-.01-.28-.09.09-.11-.19l.05-.08-.07-.08c.01-.21.08-.31.12-.32,0,.05.01.14.02.2.06-.27-.02-.75,0-.84l-.03.3c-.01-.21-.02-.44-.02-.67,0-.12,0-.23,0-.35v-.18s-.01-.2-.01-.2c-.03-.53-.21-1.04-.48-1.42v.08c-.2-.29-.28-.4-.36-.52-.04-.06-.08-.13-.15-.21-.03-.04-.08-.09-.12-.14-.05-.05-.12-.1-.19-.16h.03c-.07-.03-.15-.07-.24-.12-.08-.05-.17-.11-.26-.16.2.06-.27-.26-.02-.17-.37-.15-.47-.16-.53-.16-.07,0-.11.01-.37.02l-.1-.09c-.09,0-.14.02-.21.02-.07,0-.17,0-.36,0,.32-.04-.24-.11.12-.16-.2-.05-.39-.07-.55-.05-.08,0-.16.01-.23.03-.07.02-.13.03-.2.05-.12.03-.23.07-.33.09-.1.02-.2.03-.31.01-.15.15.03.11.22.05.19-.04.4-.1.3-.06.09.01.02.06-.1.11-.06.03-.13.05-.2.08-.07.03-.14.06-.2.07-.12.04-.24.03-.41.05-.17.02-.39.08-.65.28.05-.04.05-.05.1-.09-.06.03-.11.06-.16.1-.05.04-.09.09-.13.14-.09.09-.17.19-.31.28-.03.19-.25.3-.16.42.1-.16.22-.32.35-.47-.05.07-.1.14-.13.21-.04.08-.07.16-.11.24-.04.08-.08.18-.13.27-.05.09-.1.2-.18.31,0-.05.03-.2.06-.31-.11.12-.12.28-.21.42-.03-.02-.03-.08-.01-.15.02-.07.07-.16.11-.26.05-.1.12-.2.17-.3.06-.1.12-.19.15-.28-.08.05-.17.2-.22.32-.06.12-.1.19-.12.07,0,.08-.01.15-.04.23-.03.08-.07.15-.11.23-.04.08-.08.17-.11.27-.03.1-.04.21-.03.32l-.08-.05c-.01.07.01.22-.01.35l-.07-.25c.02.36-.15.71-.1,1.01,0-.32.03-.36.06-.35.03.01.07.07.11-.07.1.79-.21.48-.19,1.3,0-.14.06-.37.09-.21-.02.17-.05.39-.09.5.02.59.09-.09.14.16-.11.2.05.3.07.53h-.09c-.02.14-.04.22-.03.28,0,.05.02.07.04.09.04.04.07.08-.04.33,0-.09-.03-.17-.05-.25-.02.09-.02.19-.05.28l-.07-.08c-.02.15-.04.25-.09.33-.02.04-.05.09-.07.13-.03.04-.07.09-.12.15.09-.03.12.12-.05.34-.16.11,0-.12-.24.16.01-.05.02-.1.05-.15.01-.02.03-.05.06-.07.02-.02.05-.05.09-.07-.01-.03,0-.1,0-.13-.16.12-.32.35-.42.44.04-.03.09-.07.12-.08l-.16.22-.19.21c-.1.02-.04-.03,0-.1-.09.07-.13.14-.28.22,0-.08-.04-.14.14-.27-.07.05-.13.11-.2.16-.07.04-.14.1-.22.14-.05-.02-.27.01-.22-.03-.14.02-.29.1-.47.15-.09.03-.18.05-.28.06-.09.02-.21.01-.32,0-.02.01-.07.03-.16.04-.42-.02-.79-.1-1.28,0-.1-.04-.18-.08-.29-.12-.23.02-.11.06-.04.09.07.04.1.08-.25.12-.5.1-.21-.08-.39-.08-.25.11-.63.34-1.09.48.12-.1.25-.13.38-.2l-.36.09c.17-.14.35-.24.43-.28.08-.05.08-.06-.11-.04,0,.06-.07.12-.19.2-.12.07-.28.16-.43.26-.3.2-.56.45-.49.55-.07.04-.13.09-.2.14.05-.05.05-.06.09-.11-.2.13-.23.22-.25.34,0,.06-.02.12-.05.19-.03.07-.07.16-.15.28-.11.16-.2.28-.17.14-.05.14-.09.29-.12.43-.04.09-.06.09-.05.04-.03.08-.04.17-.07.25-.03.11-.04.22-.06.33h0c.02.09.07.31.09.42-.04.17-.02-.08-.05-.04,0,.12.04.24.07.36-.03.08-.06.04-.09-.05-.03-.09-.05-.23-.03-.36-.13.17-.11.26-.08.38.02.06.04.14.06.25.02.11.03.25.05.44l-.06-.17c-.02-.06-.03-.12-.05-.18-.02.06-.04.13-.04.2,0,.07.01.14.02.22.01.08.03.16.06.25.02.09.04.19.07.29,0-.05-.03-.28-.03-.43.01-.15.05-.24.13-.05.01.06.03.12.06.2.03.07.07.16.15.24-.08.04.03.23.19.45l-.11.04c.2.23.24.17.39.28.11.12.16.21.18.28.03.07.03.12.03.18.2.19.15.1.12.02-.03-.09-.06-.15.19.03.33.3.64.42,1.16.52.29.12-.07.05.02.11l.29-.02c.06.02.04.04.02.05.23,0,.04-.1.4-.08.05-.06.23,0,.45.05.21.04.45.08.66.01.1.03-.05.07-.02.11.56-.09.48-.07.93-.19.13.03.27.04.38.08-.13-.05-.11-.09-.02-.13.09-.04.26-.08.42-.09-.01,0-.03-.02-.04-.02.04,0,.07,0,.11.02-.02,0-.05,0-.07,0,.02,0,.03.02.05.03.03,0,.06-.02.08-.03.08.02.16.04.24.06,0,.03-.08.05-.16.07-.05-.04-.11-.07-.16-.1-.14.05-.25.11-.23.17.03,0,.09-.01.16,0-.03.01-.05.03-.04.04.01.01.07,0,.15-.02.03.04.05.1.08.14l.04-.04c.09.04.19.07.28.12.09.04.18.09.26.14.06,0,.11.01.16.02.05.01.11.02.16.03.11.02.22.06.34.1.23.09.49.24.73.52-.19-.09-.15.06-.24.11,0-.05-.03-.11-.07-.16-.04-.05-.1-.09-.16-.14-.06-.05-.14-.09-.2-.14-.07-.05-.14-.1-.21-.15.14.12.07.13.03.12.09.04.18.11.27.16.09.06.17.12.25.19-.08.05.03.14.09.29.04-.1.13-.02.23.11.09.14.18.33.25.44-.03.02-.06.02-.1-.02-.02-.02-.04-.05-.06-.09-.02-.04-.05-.09-.08-.16.02.17.1.25.19.34.05.04.09.09.12.14.03.06.05.12.04.21-.01-.07-.02-.12-.06-.14.06.08.08.23.09.35,0,.12-.02.2-.05.15v-.07c0,.23,0,.66.02,1.01.02.35.06.65.14.69-.02,0-.18-.07-.21-.1l.26.48c.03.06.06.12.1.18,0,.1,0,.21.02.31-.04.01-.08.03-.12.04-.1.03-.21,0-.25-.24,0,.07-.01.15,0,.25.01.1.03.22.09.36,0-.1.15-.27.18-.14-.04.18-.03.25-.03.32,0,.08.02.16.04.39-.02-.15.21-.06.31.13-.04-.02-.17.1-.23.04.14.15.3.27.46.39-.11-.09-.16.07-.12.21,0-.04.07.07.17.18.1.12.22.25.29.29-.05-.06-.1-.13-.15-.2.22.24.4.29.57.32.08.02.17.03.27.06.1.03.2.07.34.13-.08,0-.29.14,0,.3.09-.02.3-.06.53-.12.02,0,.03,0,.05-.01.22.06.44.09.67.1-.04.02-.08.03-.12.04-.14.04-.28.08-.43.1-.14.01-.28.03-.39.02.23.11.05.09.42.17.06.04,0,.05-.08.05-.09,0-.2-.03-.26-.04.15.04.29.09.44.11.08.01.15.03.23.04l.23.02c-.02-.06.16-.08.33-.12.17-.03.33-.08.31-.13-.15.05-.31.07-.47.1-.16.02-.32.03-.49.03,0-.03.03-.06.09-.09.06-.03.15-.06.26-.09.22-.06.49-.13.78-.17.08,0,.06.06.03.12-.03.06-.09.12-.08.13.08-.04.55-.21.61-.21-.08.05-.15.1-.23.14.18-.03.3-.11.42-.2.12-.09.25-.17.46-.23.13-.06.44-.12.42-.19-.17.02-.33-.08-.42-.21.12-.08.23-.17.34-.27,0,.02.01.03.02.04l.06-.06-.03-.03c.11-.1.21-.21.3-.33.05.01.05.09.04.17,0,.1-.03.21.07.17-.02-.03.03-.15.05-.19.11-.1.05.11.22-.15-.04-.05.05-.19.1-.26.02-.04.04-.06.03-.05,0,0-.05.05-.14.14.07-.13.1-.2.15-.28.02-.04.05-.07.08-.12.03-.05.05-.11.08-.2-.06.04-.09-.06-.11-.19,0-.05-.02-.09-.02-.14.03-.11.05-.23.07-.35,0,0,.01-.01.01-.02.04-.28.05-.51.07-.72.02-.22.03-.43.03-.69.03-.05.07-.31.12-.2-.02-.08-.06-.15-.07-.31.11-.32.02.37.14.12-.07-.02-.1-.43-.14-.66-.12.07-.02.54.02.77-.05,0-.11-.05-.16-.14v-.58c0-.39.08-.76.21-1.11.08-.15.2-.4.38-.65.23-.33.59-.64.88-.78.06-.06.15-.14.17-.18.47-.26,1.02-.41,1.61-.41h.6s0,.03,0,.04l.29-.04h.03s-.1.05-.02.06c0-.02.05-.05.12-.06h.48s.02,0,.03,0c0,0,.01,0,.02,0h.37s.02,0,.03,0c.01,0,.03,0,.06,0,.03,0,.05,0,.08-.01,1.72-.08,3.09-1.44,3.09-3.12h0c0-1.73-1.45-3.13-3.25-3.13Zm-20.44,3.8c.12.09.1.18.12.36-.04-.09-.15-.27-.12-.36Zm6.38,2.73c.08,0,.17.05.26.1-.07,0-.16-.05-.26-.1Z"/>
  <path class="cls-3" d="m13.21,27.56l.05-.14c-.03.07-.04.11-.05.14Z"/>
  <path class="cls-3" d="m12.88,28.57l.03.03c-.01-.05-.02-.07-.03-.03Z"/>
  <path class="cls-3" d="m18.54,32.51c.05.02.13.04.23.06-.07-.03-.15-.04-.23-.06Z"/>
  <path class="cls-3" d="m18.22,25.48l.16-.08c-.25,0-.14.04-.16.08Z"/>
  <path class="cls-3" d="m28.63,22.59s0,.03,0,.04c.01,0,.01-.01,0-.04Z"/>
  <path class="cls-3" d="m28.17,37.74s0,0,0,.01c.02-.03.02-.03,0-.01Z"/>
  <path class="cls-3" d="m21.87,19.26s.01-.01.02-.02c.04-.13.02-.08-.02.02Z"/>
  <path class="cls-3" d="m21.33,37.44s0,0,0,.02c0,0,0-.01,0-.02h0Z"/>
  <path class="cls-3" d="m21.27,36.99c.05.09.07.17.08.23,0,.07,0,.13,0,.21.07-.06.14-.11.22-.15l-.29-.29Z"/>
  <path class="cls-3" d="m13.04,28.02s.01-.05.02-.08c-.01.03-.02.06-.02.08Z"/>
  <path class="cls-3" d="m21.18,22.11s0-.04,0-.05c0,.02,0,.04,0,.05Z"/>
  <path class="cls-3" d="m18.79,32.54s-.03-.03-.03-.05c-.03,0-.04.02.03.05Z"/>
  <path class="cls-3" d="m18.2,25.5h.01s.01,0,.01-.01h-.03Z"/>
  <path class="cls-3" d="m27.79,39.45c-.07.07-.11.1-.15.11.01.02.06,0,.15-.11Z"/>
  <path class="cls-3" d="m30.74,32.3c.1-.01.21-.02.31-.02h-.09c-.07,0-.14,0-.21.02Z"/>
  <path class="cls-3" d="m28.49,34.28l.1.05s0-.1.01-.15c-.05.07-.07.07-.11.1Z"/>
  <path class="cls-3" d="m28.39,35.04s.07.44.08.06c-.04-.03,0-.33-.08-.06Z"/>
  <path class="cls-3" d="m23.17,40.39c-.07-.05-.13-.1-.07-.09-.25-.09-.35-.21-.32-.04.17.15.22.13.25.12.03-.01.06-.02.22.09.06,0-.01-.04-.08-.09Z"/>
  <path class="cls-3" d="m23.09,40.3s.08.03.13.04c-.07-.03-.11-.04-.13-.04Z"/>
  <path class="cls-3" d="m13.15,30.94h.04s-.03-.11-.09-.23c.01.08.03.16.05.23Z"/>
  <polygon class="cls-3" points="13.29 27.19 13.25 27.25 13.41 27.2 13.29 27.19"/>
  <path class="cls-3" d="m15.94,25.42c.08,0,.11,0,.09-.06-.11.01-.22.04-.33.07.1-.02.19,0,.24,0Z"/>
  <path class="cls-3" d="m15.7,25.42s-.07.01-.11.03c.04,0,.07-.02.11-.03Z"/>
  <path class="cls-3" d="m67.12,67.35s0,.03,0,.05h.04c0-.18-.03-.29-.04-.2v-.44c.06.27.28.07.41-.18-.03,0-.06,0-.1-.32-.04.11-.09.69-.15.43-.04-.41.03-.34.06-.54-.08.15-.12-.38-.22-.44v-2.51s.02.01.03-.02v-.23c.06-.21.09.44.13.14.05.31.14.66.1,1.1l-.11.08s.07-.29.03-.41c.05.18-.15.67,0,.88l.08-.31c.06.31.17.7.14,1.09.11-.18-.01-.09.11-.37-.16.24,0-1-.16-.61.15-.28.06-.49.19-.86-.04.01-.07.13-.05-.2-.01-.01-.02-.05-.03-.07,0,0,0-.01,0-.02,0,0,0,.01,0,.02,0-.01,0-.02,0,0-.02.08-.03.14-.06.17-.08-.16-.08-.68-.12-.86.02-.19.04.08.08-.02l-.06-.26c.08-.03.13-.52.18-.06v-.41c.05-.24.07-.58.03-.78.02-.19-.09-.49-.03-.32l-.05-.65h.02c.01-.64-.13-1.32.01-2.05-.02-.21-.05-.44-.02-.79l.07-.07c-.01-.14,0-.34.02-.53,0-.08,0-.2,0-.29,0-.09-.03-.16-.05-.19.07-.19-.03-.63-.29-1.01-.25-.39-.66-.68-.93-.85l-.07.06c-.36-.21-.78-.31-1.29-.29l.03.08c-.39.06-.96-.06-1.55-.05.04-.03.19-.02.29,0-.7-.17-1.48.13-2.11,0-.16.03-.27.02-.38,0,.01,0,.03,0,.04,0-.02,0-.04,0-.07,0-.07-.01-.14-.03-.22-.04.07.02.13.03.19.04-.12,0-.31.01-.49.03l-.08-.08s-.03,0-.04,0c-.18-.03-.14.04-.05.1-.09.01-.18.03-.24.05-.14-.13-.48.05-.67-.1-.11.06-.8.05-.98.17-.2-.02-.4-.03-.58,0l-.09-.11-.44.14c-.27-.06-.38-.1-.11-.18-.64.12-.52.05-1.07.17l.03-.07c-.2,0-.51.09-.63.04-.44-.13-2.17-.02-3.29-.14.22.2-.52-.09-.57.07-.07-.05-.22-.07-.04-.12-.57.05-.86-.08-1.26.06-.07-.05.12-.07.06-.1-.05.01-.18.04-.24.01-.06-.03.08-.04.17-.06-.59,0-.64.15-.69.29-.3-.07-.44-.06-.66.03-.1-.04-.28-.09.09-.11-.2,0-1.25-.07-1.27.04-.06-.03-.29,0-.34,0-.46,0-.5-.02-.95,0l.13.02c-.09.07-.18.07-.31.07-.12,0-.28,0-.47.05v-.02c-.11.01-.2.04-.27.06-.07.02-.13.04-.17.06-.09.04-.13.06-.17.09-.07.06-.17.09-.54.35.03,0,.06.02.1.03.03.09-.12.2-.29.37-.17.17-.36.44-.38.69.03-.05.06-.11.1-.16,0,.07-.03.14-.08.22-.04.08-.09.17-.13.27-.09.2-.17.37-.18.5-.02.05-.03-.09-.04-.16-.11.66.11.09.14.58-.06.09-.15-.12-.17.21-.05.16.2.96.08,1.41.05-.1.09-.2.13.03.02.35-.18.95-.03,1.26-.01.04-.03.06-.04.06.04.27.06.87.14,1.03-.3.25.14,1.66-.13,1.66v.82s-.01-.02-.01-.02c-.02.53.05.71.11.9-.02.12-.04.03-.06.02-.06.77-.04.84.09,1.49l-.09.07c.05.17-.14,1.11-.04,1.86-.01,0-.03-.02-.04-.08.1.85-.25,2.03.08,2.34l.08.56c.03-.72.14.11.19-.19.02.28-.1.74-.11.39l.02-.05c-.17-.13-.06.9-.17.88,0,.71-.02,1.42-.04,2.11-.01.35-.02.69-.03,1.03,0,.4.09.8.28,1.14.01-.07.02-.15.04-.21.07.16.16.31.27.45.06.12.03.22-.19-.1.01.05.05.11.09.17.05.06.1.11.16.15.11.09.23.13.24.12.27.25.21.23.07.18-.13-.06-.31-.19-.22-.11.08.07.17.14.26.2l-.05-.06c.12.06.2.08.29.11.05.02.1.04.17.06.07.03.15.06.26.1.13.06.17.09.18.11.01.02,0,.03.06.05,0,0,.03.03.18.04.12.02.24.03.36.04.12,0,.21,0,.31,0l-.24-.1c.27-.05.57,0,.29-.11.41.17,2.27.06,2.53.12.38-.07.75-.07,1.21-.06-.12-.02-.18-.13.22-.12-.15.23.73.1,1.05.27-.29-.11,1.13-.03.68-.18.33.02.02.09.27.14.79-.09,1.75.06,2.73.03.02-.03-.15-.08.06-.12l.52.15c.19-.01.18-.17.53-.07-.05-.03-.12-.06,0-.07,1.92.15,3.92-.12,5.87.16-.26-.06-.09-.06.11-.07-.13-.01,0-.07-.02-.12l.82.11c.15-.11.87,0,.96-.12l-.26.02c.19-.07.02-.15-.15-.23h.81c1.18,0,2.15-.93,2.15-2.07v-7.82Zm0-.64v-.53c.03.13.04.34,0,.53Zm0-.64s0,0,0,0v-.04.04Zm.42-4.42s0,0,0-.01c.03-.23.02-.15,0,.01Zm-.19-1.93c.04.51-.1.22-.08.31-.03.95.26.81.15,1.6-.1.31-.19.01-.26.08-.04-.41.06-.64.06-.92l-.05.35c-.03-.13-.06-.41-.03-.56-.01.03-.02.08-.02.14v-1.96c.09.19.18.53.22.95Zm-.22-3.05c0-.14-.02-.27-.04-.4.06.1.11.22.12.33-.03-.01-.06.03-.07.07Zm-1.67-2.24s.23.09.43.21c.19.12.36.29.41.36.02.03.02.05.02.06-.13-.1-.28-.19-.44-.26l.05-.12s-.07.06-.11.1c-.15-.06-.32-.11-.49-.13.02-.1.06-.19.14-.21Zm-2.65-.06l.12.06.47-.06c-.12.06-.34.16-.59.25h-.78c.23-.11.5-.21.78-.24Zm-4.12.03s-.03.02-.03.03c0-.02-.06-.03.03-.03Zm-1.16.06s-.02.09,0,.15h-.36l.36-.15Zm-7.7.02c.07.02.01.06-.08.1.04,0,.08-.02.11-.03.08.02.11.04.11.06h-.29s.05-.02.07-.03c-.04,0-.09.02-.14.03h-.13c-.09-.03-.18-.06-.23-.07l.58-.06Zm-3.62,23.04l-.1-.05c.12.02.17.03.17.03,0,0-.03.01-.07.02Z"/>
  <path class="cls-3" d="m61.04,47.14c-.23-.06-.48-.16-.45-.09l.07.07c.16-.01.28,0,.38.01Z"/>
  <path class="cls-3" d="m67.59,51.58c.03-.17.05-.36,0-.54,0,.03-.01.07-.02.1.01.14.02.27.02.44Z"/>
  <path class="cls-2" d="m35.87,67.35s0,.03,0,.05h.04c0-.18-.03-.29-.04-.2v-.44c.06.27.28.07.41-.18-.03,0-.06,0-.1-.32-.04.11-.09.69-.15.43-.04-.41.03-.34.06-.54-.08.15-.12-.38-.22-.44v-2.51s.02.01.03-.02v-.23c.06-.21.09.44.13.14.05.31.14.66.1,1.1l-.11.08s.07-.29.03-.41c.05.18-.15.67,0,.88l.08-.31c.06.31.17.7.14,1.09.11-.18-.01-.09.11-.37-.16.24,0-1-.16-.61.15-.28.06-.49.19-.86-.04.01-.07.13-.05-.2-.01-.01-.02-.05-.03-.07,0,0,0-.01,0-.02,0,0,0,.01,0,.02,0-.01,0-.02,0,0-.02.08-.03.14-.06.17-.08-.16-.08-.68-.12-.86.02-.19.04.08.08-.02l-.06-.26c.08-.03.13-.52.18-.06v-.41c.05-.24.07-.58.03-.78.02-.19-.09-.49-.03-.32l-.05-.65h.02c.01-.64-.13-1.32.01-2.05-.02-.21-.05-.44-.02-.79l.07-.07c-.01-.14,0-.34.02-.53,0-.08,0-.2,0-.29,0-.09-.03-.16-.05-.19.07-.19-.03-.63-.29-1.01-.25-.39-.66-.68-.93-.85l-.07.06c-.36-.21-.78-.31-1.29-.29l.03.08c-.39.06-.96-.06-1.55-.05.04-.03.19-.02.29,0-.7-.17-1.48.13-2.11,0-.16.03-.27.02-.38,0,.01,0,.03,0,.04,0-.02,0-.04,0-.07,0-.07-.01-.14-.03-.22-.04.07.02.13.03.19.04-.12,0-.31.01-.49.03l-.08-.08s-.03,0-.04,0c-.18-.03-.14.04-.05.1-.09.01-.18.03-.24.05-.14-.13-.48.05-.67-.1-.11.06-.8.05-.98.17-.2-.02-.4-.03-.58,0l-.09-.11-.44.14c-.27-.06-.38-.1-.11-.18-.64.12-.52.05-1.07.17l.03-.07c-.2,0-.51.09-.63.04-.44-.13-2.17-.02-3.29-.14.22.2-.52-.09-.57.07-.07-.05-.22-.07-.04-.12-.57.05-.86-.08-1.26.06-.07-.05.12-.07.06-.1-.05.01-.18.04-.24.01-.06-.03.08-.04.17-.06-.59,0-.64.15-.69.29-.3-.07-.44-.06-.66.03-.1-.04-.28-.09.09-.11-.2,0-1.25-.07-1.27.04-.06-.03-.29,0-.34,0-.46,0-.5-.02-.95,0l.13.02c-.09.07-.18.07-.31.07-.12,0-.28,0-.47.05v-.02c-.11.01-.2.04-.27.06-.07.02-.13.04-.17.06-.09.04-.13.06-.17.09-.07.06-.17.09-.54.35.03,0,.06.02.1.03.03.09-.12.2-.29.37-.17.17-.36.44-.38.69.03-.05.06-.11.1-.16,0,.07-.03.14-.08.22-.04.08-.09.17-.13.27-.09.2-.17.37-.18.5-.02.05-.03-.09-.04-.16-.11.66.11.09.14.58-.06.09-.15-.12-.17.21-.05.16.2.96.08,1.41.05-.1.09-.2.13.03.02.35-.18.95-.03,1.26-.01.04-.03.06-.04.06.04.27.06.87.14,1.03-.3.25.14,1.66-.13,1.66v.82s-.01-.02-.01-.02c-.02.53.05.71.11.9-.02.12-.04.03-.06.02-.06.77-.04.84.09,1.49l-.09.07c.05.17-.14,1.11-.04,1.86-.01,0-.03-.02-.04-.08.1.85-.25,2.03.08,2.34l.08.56c.03-.72.14.11.19-.19.02.28-.1.74-.11.39l.02-.05c-.17-.13-.06.9-.17.88,0,.71-.02,1.42-.04,2.11-.01.35-.02.69-.03,1.03,0,.4.09.8.28,1.14.01-.07.02-.15.04-.21.07.16.16.31.27.45.06.12.03.22-.19-.1.01.05.05.11.09.17.05.06.1.11.16.15.11.09.23.13.24.12.27.25.21.23.07.18-.13-.06-.31-.19-.22-.11.08.07.17.14.26.2l-.05-.06c.12.06.2.08.29.11.05.02.1.04.17.06.07.03.15.06.26.1.13.06.17.09.18.11.01.02,0,.03.06.05,0,0,.03.03.18.04.12.02.24.03.36.04.12,0,.21,0,.31,0l-.24-.1c.27-.05.57,0,.29-.11.41.17,2.27.06,2.53.12.38-.07.75-.07,1.21-.06-.12-.02-.18-.13.22-.12-.15.23.73.1,1.05.27-.29-.11,1.13-.03.68-.18.33.02.02.09.27.14.79-.09,1.75.06,2.73.03.02-.03-.15-.08.06-.12l.52.15c.19-.01.18-.17.53-.07-.05-.03-.12-.06,0-.07,1.92.15,3.92-.12,5.87.16-.26-.06-.09-.06.11-.07-.13-.01,0-.07-.02-.12l.82.11c.15-.11.87,0,.96-.12l-.26.02c.19-.07.02-.15-.15-.23h.81c1.18,0,2.15-.93,2.15-2.07v-7.82Zm0-.64v-.53c.03.13.04.34,0,.53Zm0-.64s0,0,0,0v-.04.04Zm.42-4.42s0,0,0-.01c.03-.23.02-.15,0,.01Zm-.19-1.93c.04.51-.1.22-.08.31-.03.95.26.81.15,1.6-.1.31-.19.01-.26.08-.04-.41.06-.64.06-.92l-.05.35c-.03-.13-.06-.41-.03-.56-.01.03-.02.08-.02.14v-1.96c.09.19.18.53.22.95Zm-.22-3.05c0-.14-.02-.27-.04-.4.06.1.11.22.12.33-.03-.01-.06.03-.07.07Zm-1.67-2.24s.23.09.43.21c.19.12.36.29.41.36.02.03.02.05.02.06-.13-.1-.28-.19-.44-.26l.05-.12s-.07.06-.11.1c-.15-.06-.32-.11-.49-.13.02-.1.06-.19.14-.21Zm-2.65-.06l.12.06.47-.06c-.12.06-.34.16-.59.25h-.78c.23-.11.5-.21.78-.24Zm-4.12.03s-.03.02-.03.03c0-.02-.06-.03.03-.03Zm-1.16.06s-.02.09,0,.15h-.36l.36-.15Zm-7.7.02c.07.02.01.06-.08.1.04,0,.08-.02.11-.03.08.02.11.04.11.06h-.29s.05-.02.07-.03c-.04,0-.09.02-.14.03h-.13c-.09-.03-.18-.06-.23-.07l.58-.06Zm-3.62,23.04l-.1-.05c.12.02.17.03.17.03,0,0-.03.01-.07.02Z"/>
  <path class="cls-2" d="m29.79,47.14c-.23-.06-.48-.16-.45-.09l.07.07c.16-.01.28,0,.38.01Z"/>
  <path class="cls-2" d="m36.34,51.58c.03-.17.05-.36,0-.54,0,.03-.01.07-.02.1.01.14.02.27.02.44Z"/>
  <path class="cls-2" d="m67.12,37.67s0,.03,0,.05h.04c0-.18-.03-.29-.04-.2v-.44c.06.27.28.07.41-.18-.03,0-.06,0-.1-.32-.04.11-.09.69-.15.43-.04-.41.03-.34.06-.54-.08.15-.12-.38-.22-.44v-2.51s.02.01.03-.02v-.23c.06-.21.09.44.13.14.05.31.14.66.1,1.1l-.11.08s.07-.29.03-.41c.05.18-.15.67,0,.88l.08-.31c.06.31.17.7.14,1.09.11-.18-.01-.09.11-.37-.16.24,0-1-.16-.61.15-.28.06-.49.19-.86-.04.01-.07.13-.05-.2-.01-.01-.02-.05-.03-.07,0,0,0-.01,0-.02,0,0,0,.01,0,.02,0-.01,0-.02,0,0-.02.08-.03.14-.06.17-.08-.16-.08-.68-.12-.86.02-.19.04.08.08-.02l-.06-.26c.08-.03.13-.52.18-.06v-.41c.05-.24.07-.58.03-.78.02-.19-.09-.49-.03-.32l-.05-.65h.02c.01-.64-.13-1.32.01-2.05-.02-.21-.05-.44-.02-.79l.07-.07c-.01-.14,0-.34.02-.53,0-.08,0-.2,0-.29,0-.09-.03-.16-.05-.19.07-.19-.03-.63-.29-1.01-.25-.39-.66-.68-.93-.85l-.07.06c-.36-.21-.78-.31-1.29-.29l.03.08c-.39.06-.96-.06-1.55-.05.04-.03.19-.02.29,0-.7-.17-1.48.13-2.11,0-.16.03-.27.02-.38,0,.01,0,.03,0,.04,0-.02,0-.04,0-.07,0-.07-.01-.14-.03-.22-.04.07.02.13.03.19.04-.12,0-.31.01-.49.03l-.08-.08s-.03,0-.04,0c-.18-.03-.14.04-.05.1-.09.01-.18.03-.24.05-.14-.13-.48.05-.67-.1-.11.06-.8.05-.98.17-.2-.02-.4-.03-.58,0l-.09-.11-.44.14c-.27-.06-.38-.1-.11-.18-.64.12-.52.05-1.07.17l.03-.07c-.2,0-.51.09-.63.04-.44-.13-2.17-.02-3.29-.14.22.2-.52-.09-.57.07-.07-.05-.22-.07-.04-.12-.57.05-.86-.08-1.26.06-.07-.05.12-.07.06-.1-.05.01-.18.04-.24.01-.06-.03.08-.04.17-.06-.59,0-.64.15-.69.29-.3-.07-.44-.06-.66.03-.1-.04-.28-.09.09-.11-.2,0-1.25-.07-1.27.04-.06-.03-.29,0-.34,0-.46,0-.5-.02-.95,0l.13.02c-.09.07-.18.07-.31.07-.12,0-.28,0-.47.05v-.02c-.11.01-.2.04-.27.06-.07.02-.13.04-.17.06-.09.04-.13.06-.17.09-.07.06-.17.09-.54.35.03,0,.06.02.1.03.03.09-.12.2-.29.37-.17.17-.36.44-.38.69.03-.05.06-.11.1-.16,0,.07-.03.14-.08.22-.04.08-.09.17-.13.27-.09.2-.17.37-.18.5-.02.05-.03-.09-.04-.16-.11.66.11.09.14.58-.06.09-.15-.12-.17.21-.05.16.2.96.08,1.41.05-.1.09-.2.13.03.02.35-.18.95-.03,1.26-.01.04-.03.06-.04.06.04.27.06.87.14,1.03-.3.25.14,1.66-.13,1.66v.82s-.01-.02-.01-.02c-.02.53.05.71.11.9-.02.12-.04.03-.06.02-.06.77-.04.84.09,1.49l-.09.07c.05.17-.14,1.11-.04,1.86-.01,0-.03-.02-.04-.08.1.85-.25,2.03.08,2.34l.08.56c.03-.72.14.11.19-.19.02.28-.1.74-.11.39l.02-.05c-.17-.13-.06.9-.17.88,0,.71-.02,1.42-.04,2.11-.01.35-.02.69-.03,1.03,0,.4.09.8.28,1.14.01-.07.02-.15.04-.21.07.16.16.31.27.45.06.12.03.22-.19-.1.01.05.05.11.09.17.05.06.1.11.16.15.11.09.23.13.24.12.27.25.21.23.07.18-.13-.06-.31-.19-.22-.11.08.07.17.14.26.2l-.05-.06c.12.06.2.08.29.11.05.02.1.04.17.06.07.03.15.06.26.1.13.06.17.09.18.11.01.02,0,.03.06.05,0,0,.03.03.18.04.12.02.24.03.36.04.12,0,.21,0,.31,0l-.24-.1c.27-.05.57,0,.29-.11.41.17,2.27.06,2.53.12.38-.07.75-.07,1.21-.06-.12-.02-.18-.13.22-.12-.15.23.73.1,1.05.27-.29-.11,1.13-.03.68-.18.33.02.02.09.27.14.79-.09,1.75.06,2.73.03.02-.03-.15-.08.06-.12l.52.15c.19-.01.18-.17.53-.07-.05-.03-.12-.06,0-.07,1.92.15,3.92-.12,5.87.16-.26-.06-.09-.06.11-.07-.13-.01,0-.07-.02-.12l.82.11c.15-.11.87,0,.96-.12l-.26.02c.19-.07.02-.15-.15-.23h.81c1.18,0,2.15-.93,2.15-2.07v-7.82Zm0-.64v-.53c.03.13.04.34,0,.53Zm0-.64s0,0,0,0v-.04.04Zm.42-4.42s0,0,0-.01c.03-.23.02-.15,0,.01Zm-.19-1.93c.04.51-.1.22-.08.31-.03.95.26.81.15,1.6-.1.31-.19.01-.26.08-.04-.41.06-.64.06-.92l-.05.35c-.03-.13-.06-.41-.03-.56-.01.03-.02.08-.02.14v-1.96c.09.19.18.53.22.95Zm-.22-3.05c0-.14-.02-.27-.04-.4.06.1.11.22.12.33-.03-.01-.06.03-.07.07Zm-1.67-2.24s.23.09.43.21c.19.12.36.29.41.36.02.03.02.05.02.06-.13-.1-.28-.19-.44-.26l.05-.12s-.07.06-.11.1c-.15-.06-.32-.11-.49-.13.02-.1.06-.19.14-.21Zm-2.65-.06l.12.06.47-.06c-.12.06-.34.16-.59.25h-.78c.23-.11.5-.21.78-.24Zm-4.12.03s-.03.02-.03.03c0-.02-.06-.03.03-.03Zm-1.16.06s-.02.09,0,.15h-.36l.36-.15Zm-7.7.02c.07.02.01.06-.08.1.04,0,.08-.02.11-.03.08.02.11.04.11.06h-.29s.05-.02.07-.03c-.04,0-.09.02-.14.03h-.13c-.09-.03-.18-.06-.23-.07l.58-.06Zm-3.62,23.04l-.1-.05c.12.02.17.03.17.03,0,0-.03.01-.07.02Z"/>
  <path class="cls-2" d="m65.1,40.93c-.16,0-.1.07-.12.08.27-.03.11-.1.12-.08Z"/>
  <path class="cls-2" d="m67.07,39.65c.04-.11.07-.23.09-.34-.03.1-.06.19-.1.29v.05Z"/>
  <path class="cls-2" d="m67.39,38.17c-.01-.23-.02-.44,0-.58-.06.09-.06.27-.04.46.01.2.05.4,0,.6-.01.02-.02.04-.04.06.03.06.05.12.07.19,0-.06.01-.12.02-.19,0-.06,0-.13,0-.19,0-.13-.02-.24-.02-.35Z"/>
  <path class="cls-2" d="m67.67,36.55c-.05.06-.04-.22-.02.24,0-.02,0-.03.01-.04,0-.04,0-.1,0-.2Z"/>
  <path class="cls-2" d="m67.66,36.75c0,.2.04-.13,0,0h0Z"/>
  <path class="cls-2" d="m67.63,35.81l.04.27c.03-.06.04-.3.06-.21-.02-.28-.05-.22-.1-.06Z"/>
  <path class="cls-2" d="m67.54,35.55l.02.14s.02-.06-.02-.14Z"/>
  <path class="cls-2" d="m67.57,35.83s0,.03.03.16l-.04-.3s-.06.04.01.14Z"/>
  <path class="cls-2" d="m67.49,36.23c.02.51.11.44.09-.08-.03.15-.05.35-.09.08Z"/>
  <path class="cls-2" d="m67.26,37.49l-.04.2.04.17c-.02-.09.03-.39,0-.38Z"/>
  <path class="cls-2" d="m67.7,34.13s-.07.09-.11.11l.03.2c.02-.1.04-.3.08-.31Z"/>
  <path class="cls-2" d="m67.59,34.24l-.05-.3c0,.27.02.31.05.3Z"/>
  <polygon class="cls-2" points="67.4 35.5 67.5 35.99 67.4 35.41 67.4 35.5"/>
  <polygon class="cls-2" points="67.7 33 67.77 33.16 67.67 32.86 67.7 33"/>
  <path class="cls-2" d="m67.72,31.67c.02.17.02.35-.03.58.05.12.09-.17.12-.04,0-.2-.05-.38-.09-.54Z"/>
  <path class="cls-2" d="m67.72,31.67c-.01-.09-.03-.18-.06-.26.01.08.03.17.06.26Z"/>
  <path class="cls-2" d="m67.64,33.2l-.08.12s0,.08,0,.12c.02-.02.06-.07.08-.23Z"/>
  <path class="cls-2" d="m67.56,33.33h0c0-.13,0-.22,0-.26,0,.03,0,.11,0,.26Z"/>
  <path class="cls-2" d="m67.56,33.47s0-.02,0-.03c0,.01-.01.02,0,.03Z"/>
  <path class="cls-2" d="m67.47,34.72c-.04-.17-.09-.54-.15-.19.05.13.09-.08.15.19Z"/>
  <path class="cls-2" d="m67.52,33.95l-.05-.34-.02.32s.05-.06.07.02Z"/>
  <polygon class="cls-2" points="67.44 33.46 67.46 33.61 67.47 33.5 67.44 33.46"/>
  <path class="cls-2" d="m67.59,31.94c-.03-.14-.04-.29-.04-.45-.02.18-.02.37-.02.54.02.03.07.1.06-.09Z"/>
  <path class="cls-2" d="m67.57,32.62s0-.02,0-.03c0,.02,0,.03,0,.03Z"/>
  <path class="cls-2" d="m67.55,29.83s0,.02-.01.03c0,0,0,0,.01,0v-.03Z"/>
  <path class="cls-2" d="m67.51,32.07c-.01.14,0,.22.03.29,0-.1-.01-.21-.01-.32-.01-.01-.02-.01-.01.03Z"/>
  <path class="cls-2" d="m67.62,30.94c-.02.07-.03.15-.04.24.02-.07.06-.21.04-.24Z"/>
  <path class="cls-2" d="m67.58,32.54s0,.01,0,.02c.02-.04,0-.04,0-.02Z"/>
  <path class="cls-2" d="m67.58,32.54c-.01-.07-.03-.12-.05-.18,0,.08.01.16.03.23,0-.02.01-.03.02-.05Z"/>
  <path class="cls-2" d="m67.53,30.45v.13c.02-.15.05-.25.1-.44-.03-.21-.06-.26-.08-.27v.63s-.02-.04-.02-.04Z"/>
  <path class="cls-2" d="m67.54,31.16c-.08-.1-.11-.41-.19-.22,0,.38.06.26.1.49-.02-.61.04.17.09-.26.01.12.02.23.02.33,0-.11.02-.22.04-.31,0,0,0,0,0,.01h0s0,0,0,0c0,.03-.02.03,0,0,0,0,0,0,0-.01-.01,0-.02-.02-.03-.03.02-.18.02-.03.03.03,0,0,0,0,.01,0,0,0,0,0,0,0l-.04-.61c-.01.13,0,.29,0,.58Z"/>
  <path class="cls-2" d="m67.15,34.21s.01-.02.02-.02c0-.04-.02-.05-.02.02Z"/>
  <path class="cls-2" d="m67.36,33.68s.01-.01.02-.02c0,0,0,0-.02.02Z"/>
  <path class="cls-2" d="m67.26,34.23v-.04c.01-.19.07-.43.11-.5-.06.06-.11.13-.17.28.01.04.04.08.03.23-.02.12-.04,0-.06,0,.02.09.06.3.09.03Z"/>
  <path class="cls-2" d="m67.35,32.54l-.04-.51-.07.26h.04c-.02.28.03.21.06.25Z"/>
  <polygon class="cls-2" points="67.59 29.77 67.67 29.84 67.55 29.55 67.59 29.77"/>
  <polygon class="cls-2" points="67.58 29.11 67.65 29.14 67.6 28.96 67.58 29.11"/>
  <path class="cls-2" d="m61.04,17.46c-.23-.06-.48-.16-.45-.09l.07.07c.16-.01.28,0,.38.01Z"/>
  <path class="cls-2" d="m67.55,22.36c.03-.19.04-.34.05-.47-.04.23-.11.41-.05.47Z"/>
  <path class="cls-2" d="m44.18,23.53c.01.09.03.13.05.13-.01-.09-.03-.15-.05-.13Z"/>
  <path class="cls-2" d="m67.59,21.9c.03-.17.05-.36,0-.54,0,.03-.01.07-.02.1.01.14.02.27.02.44Z"/>
  <path class="cls-2" d="m63.09,40.85c-.06,0-.17,0-.27,0,.05,0,.13,0,.27,0Z"/>
  <path class="cls-2" d="m67.61,26.46c0,.14,0,.02,0,0h0Z"/>
  <path class="cls-2" d="m67.26,27.09s.03.03.04.06c0-.03-.02-.05-.04-.06Z"/>
  <path class="cls-2" d="m67.57,26.67c0-.05.02-.11.02-.18,0,.03-.01.08-.02.18Z"/>
  <path class="cls-2" d="m67.61,26.64s0,.09,0,.12c.01.02.02,0,0-.12Z"/>
  <path class="cls-2" d="m67.61,26.46s0-.1,0-.19c0,.08,0,.15,0,.23,0-.03,0-.04.01-.03Z"/>
  <path class="cls-2" d="m67.65,27.88v.03s0-.02,0-.03Z"/>
  <path class="cls-2" d="m67.63,27.61c0,.15-.01.2-.03.27.02,0,.04-.05.05,0l-.02-.27Z"/>
  <path class="cls-2" d="m67.36,28.19c-.07.02-.05.21-.03.43,0-.01,0-.02,0-.04.1.06.07-.16.03-.39Z"/>
  <path class="cls-2" d="m67.33,28.67c0,.07,0,.13,0,.2.04.02,0-.08,0-.2Z"/>
  <path class="cls-2" d="m67.55,26c-.02.1.09.06.06.12.09.11-.11-.67-.06-.12Z"/>
  <polygon class="cls-2" points="67.12 28.36 67.21 28.29 67.14 28.17 67.12 28.36"/>
  <path class="cls-2" d="m67.19,26.69l-.02.34s.02.04.03.09c0-.21.02-.44,0-.43Z"/>
  <path class="cls-2" d="m67.21,27.39c0-.06,0-.19-.01-.27,0,.11,0,.21.01.27Z"/>
  <path class="cls-2" d="m67.14,22.87c.02.09.03.23.06.17l-.03-.37s-.05.06-.04.2Z"/>
  <polygon class="cls-2" points="64.16 40.94 64.46 40.98 64.27 40.92 64.16 40.94"/>
  <path class="cls-2" d="m64.73,40.81l.07.11.18-.1c-.07,0-.19.01-.25-.01Z"/>
</svg>