<svg xmlns="http://www.w3.org/2000/svg" viewBox="0 0 145.95 81.72"><defs><style>.cls-1{fill:#fff;}.cls-2{fill:#8ac577;}.cls-3{fill:#fac959;}.cls-4{fill:#f5cc59;}.cls-5{fill:#ecaeb1;}.cls-6{fill:#57a488;}</style></defs><g id="圖層_9" data-name="圖層 9"><path class="cls-1" d="M20.29,67.54l-.07-4.69a2.66,2.66,0,0,0-.15-1.16,2.2,2.2,0,0,0,.19-.3l.12-.24a1.75,1.75,0,0,0,.18-.63A2.31,2.31,0,0,0,20,58.78a1.64,1.64,0,0,0-.55-.43l-.25-.13a1.75,1.75,0,0,0-.78-.18h-.26a2.55,2.55,0,0,0-.39-.63,1.8,1.8,0,0,0-.54-.41L17,56.87a1.91,1.91,0,0,0-.62-.17h-.24a2.36,2.36,0,0,0-1.45.48,1.76,1.76,0,0,0-.38.39,2.77,2.77,0,0,0-.26.48H13.3a2.56,2.56,0,0,0-1,.21c0-.06,0-.12-.07-.17l-.13-.25a1.74,1.74,0,0,0-.81-.8L11,56.91a1.57,1.57,0,0,0-.6-.16l-.23,0a2.28,2.28,0,0,0-1.51.55l-.21.21a2.42,2.42,0,0,0-.54,1.26.61.61,0,0,0,0,.14L7.74,59l-.25.12a1.75,1.75,0,0,0-.78.79l-.13.24a2,2,0,0,0-.17.64,2.35,2.35,0,0,0,.47,1.69,2.27,2.27,0,0,0,.3.32l-.1.31c-.22.67-.46,1.34-.71,2a1.53,1.53,0,0,0-.11.47,2.33,2.33,0,0,0,.54,1.75,1.75,1.75,0,0,0,.55.42l.24.12a1.54,1.54,0,0,0,.47.16v1.37a1.41,1.41,0,0,0,0,.2,2.51,2.51,0,0,0,.54,1.25l.23.23a2.51,2.51,0,0,0,1.25.54h.42a2.6,2.6,0,0,0,1.2-.46l.22-.19a2.1,2.1,0,0,0,1.34.47l4.84-.08h.12a3.28,3.28,0,0,0,1.54-.38,1.83,1.83,0,0,0,.75-.76l.12-.25a1.75,1.75,0,0,0,.18-.63,2.45,2.45,0,0,0-.47-1.68Z"/><path class="cls-1" d="M37.85,66.34c.09-.14.17-.29.25-.44a1.74,1.74,0,0,0,.2-.67,2.3,2.3,0,0,0-.56-1.76s0,0,0-.08a2.42,2.42,0,0,0-.3-1.41h0a1.75,1.75,0,0,0,.18-.78A2.79,2.79,0,0,0,37,59.44a2.92,2.92,0,0,1-.24-.37,1.86,1.86,0,0,0-.72-.7l-.24-.12a1.63,1.63,0,0,0-.65-.19H35l-.39,0a2,2,0,0,0-.41-.29l-.25-.12a1.65,1.65,0,0,0-.62-.18H33a2.28,2.28,0,0,0-1.5.55l-.21.21,0,0h0a2.69,2.69,0,0,0-.35-.55,1.78,1.78,0,0,0-.57-.45l-.24-.12a1.75,1.75,0,0,0-.63-.18h-.23a2.31,2.31,0,0,0-1.52.55,2,2,0,0,0-.2.21,2.46,2.46,0,0,0-.31.48H26.9a1.84,1.84,0,0,0-.73.16l-.24.11a1.7,1.7,0,0,0-.85.82l-.13.24a2,2,0,0,0-.17.62A2.38,2.38,0,0,0,25,61.44a1.73,1.73,0,0,0-.47.57l-.12.23a1.69,1.69,0,0,0-.2.66,2.37,2.37,0,0,0,.52,1.73h0a1.87,1.87,0,0,0-.18.61A2.32,2.32,0,0,0,25,66.92l-.15.23-.15.27a1.79,1.79,0,0,0-.2.67,2.36,2.36,0,0,0,.53,1.74,1.92,1.92,0,0,0,.52.42l.24.12a1.77,1.77,0,0,0,.82.2,2.82,2.82,0,0,0,.71-.09l.07.11a1.73,1.73,0,0,0,.67.59l.25.13a2,2,0,0,0,.63.17h.23A2.27,2.27,0,0,0,30.7,71a1.76,1.76,0,0,0,.46-.62.3.3,0,0,0,0-.1l.15.2a1.79,1.79,0,0,0,.61.45l.25.11a1.76,1.76,0,0,0,.72.16h.14l.31,0a1.78,1.78,0,0,0,.74-.23,2.3,2.3,0,0,0,1.3.43,2.05,2.05,0,0,0,1.55-.7c.18-.21.39-.47.64-.82a8,8,0,0,0,.61-1,1.79,1.79,0,0,0,.2-.67A2.33,2.33,0,0,0,38,66.47.64.64,0,0,0,37.85,66.34Z"/><path class="cls-1" d="M51.24,62.13a3.39,3.39,0,0,0-.85-.92,2.32,2.32,0,0,0-.31-.19,3.84,3.84,0,0,0-1.28-.33h-.25a3.45,3.45,0,0,0-1.11.19l-.23.1a2.92,2.92,0,0,0-1.57,2.13c0,.11,0,.21,0,.32a3.93,3.93,0,0,0,.25,1.42,2.74,2.74,0,0,0,1.26,1.47,2.86,2.86,0,0,0,1.34.33h.22a3,3,0,0,0,2.41-1.16,1.25,1.25,0,0,0,.16-.22,3,3,0,0,0,.05-3Z"/><path class="cls-1" d="M72.23,63.22h0l0-.06a1.75,1.75,0,0,0,.18-.63,2.3,2.3,0,0,0-.54-1.74,1.82,1.82,0,0,0-.6-.46,3.24,3.24,0,0,0-.33-.13,1.86,1.86,0,0,0,.08-.41,2.36,2.36,0,0,0-.46-1.67,1.65,1.65,0,0,0-.29-.3A2.31,2.31,0,0,0,69,57.27l-.22,0H68.7c-.93.06-1.86.15-2.78.26A20.39,20.39,0,0,0,63,58.1a1.79,1.79,0,0,0-1.1.91l-.12.25a1.65,1.65,0,0,0-.18.62,2.56,2.56,0,0,0,0,.62,1.74,1.74,0,0,0-.61.68l-.12.25a1.7,1.7,0,0,0-.18.63,2.44,2.44,0,0,0,.1,1l-.34.16a1.78,1.78,0,0,0-.79.79l-.12.24a1.75,1.75,0,0,0-.18.63,2.3,2.3,0,0,0,.54,1.74,1.45,1.45,0,0,0,.21.22,2.41,2.41,0,0,0,1.25.53l.22,0,1.54,0-.06.11a1.7,1.7,0,0,0-.18.62,2.31,2.31,0,0,0,.54,1.75,1.39,1.39,0,0,0,.21.21c.33.27.65.53,1,.76a5.75,5.75,0,0,0,1.36.73,1.66,1.66,0,0,0,.49.11h.18a2.31,2.31,0,0,0,2-1.17,4.19,4.19,0,0,0,.52-1.4,12.46,12.46,0,0,0,.15-1.6v-.11l1.22,0,.4,0a2.87,2.87,0,0,0,1.44-.38,1.76,1.76,0,0,0,.69-.74l.12-.24a1.75,1.75,0,0,0,.18-.63,2.38,2.38,0,0,0-.57-1.79A1.76,1.76,0,0,0,72.23,63.22Z"/><path class="cls-1" d="M89.53,59.57A3.9,3.9,0,0,0,88,59.24l-1.88-.05a2.31,2.31,0,0,0-.52-1,1.68,1.68,0,0,0-.54-.41l-.24-.13a2,2,0,0,0-.63-.17h-.22a2.33,2.33,0,0,0-.88.16,2.61,2.61,0,0,0-.28-.17l-.25-.12a1.65,1.65,0,0,0-.62-.18h-.23a2.32,2.32,0,0,0-1.56.59,1.71,1.71,0,0,0-.47.66,12.27,12.27,0,0,1-1.18,2.24,29.21,29.21,0,0,0-1.56,2.65,1.81,1.81,0,0,0-.19.65,2.38,2.38,0,0,0,.47,1.68,1.84,1.84,0,0,0,.62.52l.24.12a2.09,2.09,0,0,0,.35.13l0,2.78a2.36,2.36,0,0,0,.52,1.66,1.37,1.37,0,0,0,.26.28,2.41,2.41,0,0,0,1.25.53l.22,0h.2a2.6,2.6,0,0,0,1.2-.46,1.88,1.88,0,0,0,.52-.6A2.9,2.9,0,0,0,82.87,69c0-.13,0-.78,0-3.25h.21l.27,0,0,3.76a1.65,1.65,0,0,0,.16.76l.14.32a1.83,1.83,0,0,0,.81.84l.25.12a1.75,1.75,0,0,0,.63.18h.23a2.28,2.28,0,0,0,1.51-.55,1.64,1.64,0,0,0,.43-.55l.12-.25a1.68,1.68,0,0,0,.19-.76V68.7h.11a2.86,2.86,0,0,0,1.58-.45,1.78,1.78,0,0,0,.63-.7l.12-.24a1.75,1.75,0,0,0,.18-.63,2.35,2.35,0,0,0-.3-1.41l.12-.24a1.75,1.75,0,0,0,.18-.63A2.47,2.47,0,0,0,90.15,63a1.85,1.85,0,0,0,.25-.37l.12-.25a1.75,1.75,0,0,0,.18-.63A2.32,2.32,0,0,0,90.16,60,1.74,1.74,0,0,0,89.53,59.57Z"/><path class="cls-1" d="M104,62.13a3.52,3.52,0,0,0-.84-.92,3.37,3.37,0,0,0-.32-.19,3.72,3.72,0,0,0-1.28-.33h-.24a3.51,3.51,0,0,0-1.12.19L100,61A2.89,2.89,0,0,0,98.4,63.1a1.73,1.73,0,0,0,0,.32,4.16,4.16,0,0,0,.25,1.42,2.75,2.75,0,0,0,1.27,1.47,2.86,2.86,0,0,0,1.34.33h.22a3.07,3.07,0,0,0,2.41-1.16.86.86,0,0,0,.15-.22,3,3,0,0,0,0-3A.75.75,0,0,0,104,62.13Z"/><path class="cls-1" d="M124.75,66.18l-.36-.52c.16-.41.31-.83.44-1.25l.3-1,.22-.12a1.75,1.75,0,0,0,.71-.74l.12-.25a1.7,1.7,0,0,0,.18-.62,2.35,2.35,0,0,0-.5-1.71,1.84,1.84,0,0,0-.59-.48l-.24-.12a1.84,1.84,0,0,0-.79-.19l-1.15,0a2.45,2.45,0,0,0-.39-.89,1.78,1.78,0,0,0-.65-.57l-.25-.12a1.75,1.75,0,0,0-.63-.18h-.23a2.37,2.37,0,0,0-.88.16l-.12-.07-.25-.12a1.75,1.75,0,0,0-.63-.18h-.22a2.21,2.21,0,0,0-.89.17,2.2,2.2,0,0,0-.32-.21l-.25-.12a1.7,1.7,0,0,0-.62-.18h-.24a2.28,2.28,0,0,0-1.51.55,1.91,1.91,0,0,0-.43.55l-.08.18a3.68,3.68,0,0,0-1.13.33,1.78,1.78,0,0,0-.79.79l-.12.25a1.7,1.7,0,0,0-.18.62,2.36,2.36,0,0,0,.13,1,1.77,1.77,0,0,0-.61.69l-.12.25a1.65,1.65,0,0,0-.18.62,2.37,2.37,0,0,0,.46,1.68l0,0a1.86,1.86,0,0,0-.07.34,2.38,2.38,0,0,0,.54,1.74.8.8,0,0,0,.13.13,1.51,1.51,0,0,0,0,.28,2.39,2.39,0,0,0,.5,1.72,1.68,1.68,0,0,0,.59.47l.24.13a1.88,1.88,0,0,0,.42.14,3.08,3.08,0,0,0,.93,1.55,2.82,2.82,0,0,0,1.66.77H117a2.25,2.25,0,0,0,1.35-.45,2.44,2.44,0,0,0,.94.32h.22a3,3,0,0,0,2.11-1c.14-.14.27-.29.4-.44l.27.37a2.82,2.82,0,0,0,1.24.9,2.16,2.16,0,0,0,.44.1h.24a2.26,2.26,0,0,0,1.5-.55,1.81,1.81,0,0,0,.44-.55l.12-.25a1.76,1.76,0,0,0,.18-.88,2.73,2.73,0,0,0-.86-1.86Z"/><path class="cls-1" d="M142.59,61.66l-.07,0,0-2.24a2,2,0,0,0-1.88-2.16c-.14,0-.54-.05-1.17-.12a2.55,2.55,0,0,0-.39,0,2.65,2.65,0,0,0-.63.07,1.88,1.88,0,0,0-.62-.11,3,3,0,0,0-1,.18,1.84,1.84,0,0,0-.47-.06H136a1.81,1.81,0,0,0-.51.08,1.7,1.7,0,0,0-.76-.18h-.09a10.92,10.92,0,0,0-1.15.12l-.91.16a2.15,2.15,0,0,0-1.66,2.34l.05,1.89a2.09,2.09,0,0,0-1.36,2.31c0,.29.05.58.08.86a3.73,3.73,0,0,0,.43,1.47,1.84,1.84,0,0,0,.38.49v0a1.65,1.65,0,0,0-.18.62,2.31,2.31,0,0,0,.55,1.75,1.74,1.74,0,0,0,.54.43l.25.12a1.72,1.72,0,0,0,.77.19h1.86a1.75,1.75,0,0,0,.53.71l1,.76a1.56,1.56,0,0,0,.45.26,2.07,2.07,0,0,0,.77.15,2.15,2.15,0,0,0,1.89-1.19,4.78,4.78,0,0,0,.3-.74l1.54,0h.09a2.91,2.91,0,0,0,1.55-.44,1.78,1.78,0,0,0,.65-.71l.12-.25a1.65,1.65,0,0,0,.18-.62,2.41,2.41,0,0,0-.2-1.22,1.84,1.84,0,0,0,.38-.81l.22-1.27A2.18,2.18,0,0,0,142.59,61.66Z"/><path class="cls-1" d="M97.41,14.34,74.59,1.93a1.77,1.77,0,0,0-.84-.21,1.74,1.74,0,0,0-.85.22L50.41,14.34a1.76,1.76,0,0,0-.91,1.54v34.7a1.75,1.75,0,0,0,1.76,1.75H96.57a1.75,1.75,0,0,0,1.76-1.75V15.88A1.74,1.74,0,0,0,97.41,14.34Z"/><path class="cls-1" d="M145.13,48.35a1.85,1.85,0,0,0-.5-.34,5.85,5.85,0,0,0-2.24-.54c-.66,0-1.33,0-2-.06a1.57,1.57,0,0,0,.31-.18,3.22,3.22,0,0,0,1.2-2.85c0-.6-.05-1.23,0-1.94a20.27,20.27,0,0,1,.07-2.19v-.1c0-1.62.06-3.27,0-4.89a4.81,4.81,0,0,0-1.81-5.1,1.83,1.83,0,0,0-.87-.34c-.42,0-.85-.06-1.26-.06a11.71,11.71,0,0,0-1.19.06,21.84,21.84,0,0,0-2.19.17h-1.18a1.57,1.57,0,0,0-.37.05l-.56.13c-.44,0-.87,0-1.3,0h-.54l-.91,0c-2.21,0-6.1-.09-6.59-.15l-.28,0h-.67c-.5,0-1,0-1.5,0a15.19,15.19,0,0,0-2.28-.23h-.09c.15,0,.31,0,.46,0a5,5,0,0,0,1.2-.21,1.44,1.44,0,0,0,.38-.15l.58,0a4.22,4.22,0,0,0,.55,0,9.4,9.4,0,0,0,2.48-.49,2.45,2.45,0,0,0,1.11.23h0c3.39,0,4.8-.2,5.47-.44h0a2,2,0,0,1,.58-.12l2.22,0h.13c.75-.05,1.52-.12,2.3-.22a3.6,3.6,0,0,0,1.56-.45,2,2,0,0,0,.45-.36,4.36,4.36,0,0,1,.37-.38A3.2,3.2,0,0,0,139.35,24a16,16,0,0,1,0-2l.06-4.89a1.09,1.09,0,0,0,0-.18c-.06-.69-.1-1.41-.12-2.14s.13-1.26.2-2a3.12,3.12,0,0,0-1.88-3.15,1.5,1.5,0,0,0-.34-.11c-.62-.14-1.26-.26-1.89-.34h-.13l-.9,0c-.49,0-1,0-1.48.07A14.1,14.1,0,0,1,131,9.07l-.16,0q-.6,0-1.2,0c-.41,0-.81,0-1.22,0-.66,0-1.31,0-2-.08h-.14c-.77,0-1.49,0-2.18.09s-1.2-.14-1.79-.23a1.23,1.23,0,0,0-.27,0h-.2c-.54.06-1.1.1-1.6.11h-.23a9.85,9.85,0,0,0-2,.19,3.34,3.34,0,0,0-2.56,1.77,1.32,1.32,0,0,0-.15.39,5,5,0,0,0,0,2.49c.07,1.45.12,2.94.13,4.48s.1,3.19.14,4.68c0,1-.1,2.06-.2,3.06a3.08,3.08,0,0,0,1.34,3.53,1.8,1.8,0,0,0,.6.22,6.73,6.73,0,0,0-1.84.41,2.49,2.49,0,0,0-.33.16,3.21,3.21,0,0,0-1.54,2.95c0,1.7-.11,3.37-.19,5.07s-.07,3.3-.15,4.89c-.09.85-.15,1.7-.16,2.52a2.84,2.84,0,0,0,.67,2l-2.4,0a23.58,23.58,0,0,0,.1-4.36c-.06-1.41-.08-2.84,0-4.22s.14-2.85.23-4.2a5.09,5.09,0,0,0-.43-2.67,1.57,1.57,0,0,0-.28-.44,3.67,3.67,0,0,0-2.85-1.25c-.78,0-1.58,0-2.37-.08h-.17a2.61,2.61,0,0,0-2.74,2.55,18,18,0,0,0,0,2.2c0,.61-.08,1.22-.13,1.84a.37.37,0,0,0,0,.11c-.1,2.87-.1,5.78,0,8.65-.07,1.37-.11,2.74-.14,4.08a1.56,1.56,0,0,0,.09.61c.34,1,1.34,2.66,4.22,2.66h.51c9.44-.09,21.17-.23,23.42-.42,1.33-.1,2.7-.23,4.08-.38,1.28.05,2.58.11,3.89.19h.2c.78-.05,1.56-.07,2.33-.08a6.68,6.68,0,0,0,1.09.09,7.08,7.08,0,0,0,1.71-.21,2.05,2.05,0,0,0,.41-.16,2.45,2.45,0,0,0,1.39-1.82A2.41,2.41,0,0,0,145.13,48.35ZM122.24,35.56l.81.15c0,.41,0,.8-.08,1.17,0,0,0,1.8,0,1.8v.2a1.79,1.79,0,0,1,0,.23,8,8,0,0,0-.87.28C122.12,38.12,122.18,36.84,122.24,35.56Zm-1.78,12.1a2.6,2.6,0,0,0,.79-.73,1.82,1.82,0,0,0,.29-.67c.08-.41.15-.84.2-1.28a2.59,2.59,0,0,0,.45-.14l.31,0h.31a7.67,7.67,0,0,0,1.57-.19,12.32,12.32,0,0,0,1.34-.36,5.28,5.28,0,0,1,.91-.22,20.38,20.38,0,0,0,2.45-.61l.86-.17a1.81,1.81,0,0,0,.49.73l.21.18a3.92,3.92,0,0,0-.07.61,1.75,1.75,0,0,0,.33,1.06,3.53,3.53,0,0,0,2.58,1.49l.33.12-2,0C130.92,47.56,125.29,47.62,120.46,47.66Z"/><path class="cls-1" d="M102.09,18a20.36,20.36,0,0,1,2.69,1.69,8.37,8.37,0,0,0,.79.66,4.73,4.73,0,0,0-1.45.51,8.22,8.22,0,0,0-2.58,1.63,1.65,1.65,0,0,0-.49.82,3.11,3.11,0,0,0,.25,2.48,3.26,3.26,0,0,0,2,1.49,19.43,19.43,0,0,1,2.69,1.7,8.41,8.41,0,0,0,1.48,1.11.9.9,0,0,0,.24.12,2.45,2.45,0,0,0,1,.19,2.86,2.86,0,0,0,1.1-.23l0,0a1.81,1.81,0,0,0,.65-.19,19.53,19.53,0,0,0,1.81-1.07,3.61,3.61,0,0,0,1.91-1.7,1.76,1.76,0,0,0,.13-1.35,4,4,0,0,0-2.61-2.7,16.69,16.69,0,0,1-2.65-1.76l-.1-.07c-.19-.13-.39-.24-.59-.36l.2-.06,0,0a1.87,1.87,0,0,0,.65-.19,20.93,20.93,0,0,0,1.81-1.07,3.68,3.68,0,0,0,1.91-1.7,1.76,1.76,0,0,0,.13-1.35,4.07,4.07,0,0,0-2.61-2.7,16.69,16.69,0,0,1-2.65-1.76l-.1-.07a7.66,7.66,0,0,0-1.82-.94,1.78,1.78,0,0,0-.52-.11h-.2a4.61,4.61,0,0,0-2.29.6,8.26,8.26,0,0,0-2.58,1.62,1.84,1.84,0,0,0-.5.82,3.22,3.22,0,0,0,.25,2.49A3.38,3.38,0,0,0,102.09,18Z"/><path class="cls-1" d="M39.72,19.34h.08l.17,0h.11a1.36,1.36,0,0,0,.29,0h.24a1.58,1.58,0,0,0,.38,0h.66a4,4,0,0,0,3.85-3.93,4.06,4.06,0,0,0-4.12-3.95,1.79,1.79,0,0,0-.72-.15H40.5a2.7,2.7,0,0,0-.43,0h0a1.36,1.36,0,0,0-.29,0,.28.28,0,0,1-.06-.08l0-.07a3.58,3.58,0,0,0,0-.79,2.58,2.58,0,0,0,0-.39V9.6s0-.24,0-.24a3.51,3.51,0,0,0-.71-1.95,1.37,1.37,0,0,0-.2-.22,1.9,1.9,0,0,0-.26-.34l-.16-.17-.16-.14a2.65,2.65,0,0,0-.26-.21,1.84,1.84,0,0,0-.68-.47,2.81,2.81,0,0,0-.94-.23l-.09,0-.3-.1a3.57,3.57,0,0,0-.69-.08h-.23l-.43.06-.24.06a1.78,1.78,0,0,0-1,.37L32.94,6l-.06,0a2.41,2.41,0,0,0-.55.35l-.14.14-.07.06L32,6.72a2.24,2.24,0,0,0-.37.39,1.72,1.72,0,0,0-.48.85,1.47,1.47,0,0,0-.1.22,1.75,1.75,0,0,0-.28.93h0a3.19,3.19,0,0,0-.06.9c0,.09,0,.21,0,.32a.43.43,0,0,1,0,.05v.31a2.11,2.11,0,0,0,0,.26l-.05,0-.36.1h-.13a1.78,1.78,0,0,0-.47-.07,2,2,0,0,0-.34.05A1.49,1.49,0,0,0,29,11h-.18a1.27,1.27,0,0,0-.28.06A1.55,1.55,0,0,0,28,11l-.21,0-.31.05h-.06l-.06,0h0l-.22.06a1.69,1.69,0,0,0-1.05,1l-.15.15A1.74,1.74,0,0,0,24.5,13l0,0a1.91,1.91,0,0,0-.28.73v0l0,0a3.73,3.73,0,0,0-.14.44v0a3.38,3.38,0,0,0-.11.34,1.74,1.74,0,0,0,.24,1.28,1.66,1.66,0,0,0-.07.94,2.37,2.37,0,0,0,.09.36,1.75,1.75,0,0,0,1.38,1.16h.25c.05.06.09.12.14.17a2.05,2.05,0,0,0,.88.48,3.89,3.89,0,0,0,.49.2h0a1.74,1.74,0,0,0,.83.24l.29,0a2.25,2.25,0,0,0,.38,0l.2,0a1.61,1.61,0,0,0,.49.07,1.23,1.23,0,0,0,.27,0l.46-.07h.11l.08,0,.2.1.08.06a1.13,1.13,0,0,0,.1.13c0,.14,0,.29,0,.44a1.22,1.22,0,0,0,0,.17,1.79,1.79,0,0,0,0,.86,1.76,1.76,0,0,0,0,.23s0,.09,0,.14a3.43,3.43,0,0,0,.17.64s0,.07.05.1a1.9,1.9,0,0,0,.18.49,2.06,2.06,0,0,0,.23.37,1.36,1.36,0,0,0,.26.41,2.19,2.19,0,0,0-.36,0H30.9l-.77,0a1.76,1.76,0,0,0-.46.06,4.9,4.9,0,0,1-.88.14l-.27,0a3.69,3.69,0,0,0-1.58.76,2.29,2.29,0,0,0-1.66.78,1.72,1.72,0,0,0-.23.32,2.56,2.56,0,0,0-.28,1.77c0,1.15,0,2.3,0,3.44a3.42,3.42,0,0,0-2.44-1c-.65,0-1.3,0-1.93-.07,0,0,0-.09,0-.14a4.12,4.12,0,0,0-1.71-2.81,2.61,2.61,0,0,0,1.41-2.11,1.7,1.7,0,0,0-.3-1.22,3.86,3.86,0,0,0-3.25-1.67h-.1a11.94,11.94,0,0,0-1.35-.08h-.24c0-.25,0-.5,0-.76a29.14,29.14,0,0,0,.31-3.62c0-1.14.09-2.29.2-3.44a2.63,2.63,0,0,0-1-2.61,1.55,1.55,0,0,0-.62-.3,1.8,1.8,0,0,0-1.12-.41,2,2,0,0,0-.67.13,1.18,1.18,0,0,1-.48.1,1.63,1.63,0,0,1-.31,0,1.47,1.47,0,0,0-.36,0,1.36,1.36,0,0,0-.29,0l-.85.14-.81.08a1.79,1.79,0,0,0-.6.17,2.54,2.54,0,0,0-1.45,2.84q.08.79.12,1.56a33.71,33.71,0,0,1-.21,3.73,15.83,15.83,0,0,0,0,2.17v0l-.85-.11-.25,0a1.9,1.9,0,0,0-.63.11,3.56,3.56,0,0,1-.89.24l-.46,0a6,6,0,0,0-1.6.21,1.48,1.48,0,0,0-.27.1,2.65,2.65,0,0,0-1.5,1.54,2.51,2.51,0,0,0,.19,2,1.81,1.81,0,0,0,.37.49A3.11,3.11,0,0,0,2,26.88a3.37,3.37,0,0,0,1.08.28h.17a9.51,9.51,0,0,0,1.05-.06l.17,0C3.67,28.78,2.77,30.39,1.81,32a15,15,0,0,0-.9,1.73A3.85,3.85,0,0,0,0,35.94a1.81,1.81,0,0,0,.16.83,2.66,2.66,0,0,0,2.45,1.6,3.67,3.67,0,0,0,.85-.11l.18-.06a2.12,2.12,0,0,0,.5,0H4.3a3.14,3.14,0,0,0,.91.14,2.9,2.9,0,0,0,1.27-.29c0,1.43,0,2.87.06,4.3.06,1.09.09,2.19.09,3.27a10.9,10.9,0,0,0,0,1.62,2.61,2.61,0,0,0,.84,2.26,1.8,1.8,0,0,0,.81.42,2,2,0,0,0,.43.05A1.7,1.7,0,0,0,9.25,50l.32,0a4.17,4.17,0,0,0,1.74-.4,4,4,0,0,0,2.81-1.38,1.79,1.79,0,0,0,.34-.56,4.56,4.56,0,0,0,.23-2.06,8.73,8.73,0,0,1,0-1.25,1.11,1.11,0,0,0,0-.19c0-1,0-2-.09-3.05-.09-2-.1-4.1-.05-6.17.08-.91.11-1.87.1-2.86a7.92,7.92,0,0,0,1.29.1h.27a3.48,3.48,0,0,0,1.13.19.68.68,0,0,0,0,.14,21.43,21.43,0,0,0-.05,2.26c0,.64-.07,1.28-.12,1.92v.1c-.09,3-.09,6,0,8.92-.05,1.42-.1,2.83-.12,4.22a1.64,1.64,0,0,0,.07.54,3.88,3.88,0,0,0,4,2.77h.21c2.52,0,5.09-.16,7.62-.4,1.21-.1,2.45-.23,3.69-.39,1.15.05,2.32.12,3.5.19h.23c.67,0,1.37-.07,2.07-.07a6.77,6.77,0,0,0,1,.08,6.13,6.13,0,0,0,1.64-.23,1.79,1.79,0,0,0,.45-.19,2.51,2.51,0,0,0,1.26-1.77,2.49,2.49,0,0,0-.7-2.06,1.69,1.69,0,0,0-.32-.27h0a3.3,3.3,0,0,1,.86-.2l.19,0a3.09,3.09,0,0,0,1.91-1.29c.05-.08.1-.16.14-.24a3.64,3.64,0,0,0,.23-2.41,6.24,6.24,0,0,1-.07-1,1,1,0,0,0,0-.17,112.38,112.38,0,0,1-.48-12.21,8.43,8.43,0,0,1,.19-1.81A3.66,3.66,0,0,0,44.58,26a1.72,1.72,0,0,0-.43-.57,6.21,6.21,0,0,0-2.46-1.27l-.1,0A10.21,10.21,0,0,0,39.53,24H38.9a3.84,3.84,0,0,0-.35-.18s0,0,.05-.05a1.58,1.58,0,0,0,.28-.46A1.74,1.74,0,0,0,39,23a2,2,0,0,0,.09-.22c0-.07.07-.16.11-.27a1.62,1.62,0,0,0,.08-1,4.17,4.17,0,0,0,.05-.52.76.76,0,0,0,0-.15,1.79,1.79,0,0,0,.14-1c0-.08,0-.15,0-.24s0-.05,0-.07,0-.06,0-.09A1.13,1.13,0,0,0,39.72,19.34Zm-6,9.8.2,0,1.75.08H36v.68l-1.53,0h-.81A1.68,1.68,0,0,0,33.68,29.14Zm-.28,5.7.19,0,.3,0h.8c.45,0,.9,0,1.35,0a1.63,1.63,0,0,0,0,.44,4.39,4.39,0,0,1,.07.61l-.48,0a18.89,18.89,0,0,0-2-.29h-.28c0-.15,0-.3,0-.45S33.41,34.94,33.4,34.84Zm.21,5.89s0-.07,0-.11l.12,0a1.08,1.08,0,0,0,.31.07c.62.09,1.25.16,1.9.21h.15l.22,0h0c0,.31,0,.61,0,.91s.05.89.07,1.33h-.06l-.27,0h-.13l-.86,0c-.27,0-.52,0-.77,0h-.15a2,2,0,0,0-.42,0l-.17,0c0-.66,0-1.33.08-2A1.69,1.69,0,0,0,33.61,40.73Zm-8.14,6.88c0-.19,0-.37,0-.56a3.94,3.94,0,0,0,.64.57c-.23,0-.45,0-.68,0Z"/><path class="cls-2" d="M10.32,69.83a.65.65,0,0,1-.35-.15.58.58,0,0,1-.14-.34l-.05-5.63c-.15.41-.31.81-.47,1.21s-.32.8-.47,1.19a.55.55,0,0,1-.46.15l-.25-.12A.59.59,0,0,1,8,65.7c.26-.69.51-1.38.74-2.08a17.47,17.47,0,0,1,.86-2.12H8.53l-.25-.12a.65.65,0,0,1-.12-.48l.12-.24.25-.13H9.65V59a.7.7,0,0,1,.15-.34.55.55,0,0,1,.44-.12l.26.12.12.25v1.66H11.7l.25.13a.55.55,0,0,1,.12.45l-.12.24a1,1,0,0,1-.61.16h-.67l1.72,1.84a.55.55,0,0,1,.12.44l-.12.25a.63.63,0,0,1-.47.12,5.73,5.73,0,0,1-1.15-1l.05,6.29-.12.24A.78.78,0,0,1,10.32,69.83Zm3-.2a.41.41,0,0,1-.45-.35c-.08-.25-.17-2.35-.28-6.28a.58.58,0,0,1,.14-.34.59.59,0,0,1,.44-.13l.25.13.12.24.2,5.75,5-.09.24.12a.61.61,0,0,1,.12.46l-.12.25a1.46,1.46,0,0,1-.81.17Zm1.35-1.47c-.28,0-.44-.08-.48-.26S14,66,13.86,62.85c0-.42.09-.65.26-.69a2.8,2.8,0,0,1,.67,0,4.34,4.34,0,0,0,.81,0V60.75l-2.52,0-.25-.12a.65.65,0,0,1-.15-.47l.13-.25a.91.91,0,0,1,.49-.14h2.3c0-.22,0-.43,0-.65a.94.94,0,0,1,.16-.58.63.63,0,0,1,.47-.12l.24.12a.57.57,0,0,1,.15.47l-.05.76h1.88l.24.12a.58.58,0,0,1,.13.44l-.13.25a.7.7,0,0,1-.37.14H16.56v1.34l1.67.06c.19,0,.26.23.23.65l.08,4.8c0,.27-.12.42-.26.45a5.58,5.58,0,0,1-.64.06C17.35,68.13,16.36,68.15,14.67,68.16Zm2.79-4.35v-.69l-2.64,0v.68Zm0,1.57v-.61l-2.59,0,0,.64Zm.05,1.76,0-.78-2.53,0,.12.84Z"/><path class="cls-2" d="M35.08,69.41a4.07,4.07,0,0,0-.31-.67,4.69,4.69,0,0,1-.31-.68,6.25,6.25,0,0,0-.71.78,1.94,1.94,0,0,1-.51.52l-.31,0-.24-.11a.59.59,0,0,1-.13-.44l.13-.25c.23-.24.47-.49.69-.76s.45-.56.65-.85a9.14,9.14,0,0,1-.5-1.76c-.1-.58-.21-1.15-.34-1.72l-6.87.12-.25-.12a.58.58,0,0,1-.12-.44l.12-.23a.86.86,0,0,1,.6-.17l2.1,0,0-1.68H26.9l-.25-.13a.61.61,0,0,1-.12-.46l.12-.25L26.9,60h1.85l0-.78a.63.63,0,0,1,.15-.33.58.58,0,0,1,.44-.13l.25.13a.64.64,0,0,1,.16.47l0,.69,2,0,.23.12a.58.58,0,0,1,.13.44l-.13.24a.73.73,0,0,1-.35.15l-1.88,0,0,1.6,3.3,0q-.17-.8-.24-1.5a9.49,9.49,0,0,0-.24-1.35.56.56,0,0,1,.15-.34.55.55,0,0,1,.42-.13l.25.13A7.72,7.72,0,0,1,33.73,61,14.62,14.62,0,0,0,34,62.56l1,0a2.79,2.79,0,0,1,.91.19.56.56,0,0,1,.13.43l-.13.25a.85.85,0,0,1-.51.14,7.34,7.34,0,0,0-1.18-.09c.11.51.19,1,.25,1.39a3.92,3.92,0,0,0,.33,1.17,5,5,0,0,0,.56-.8,3.5,3.5,0,0,1,.58-.75l.28,0,.25.12a.55.55,0,0,1,.12.43,11.55,11.55,0,0,1-.67,1.1l-.74,1.08.29.74.44-.46a.58.58,0,0,1,.43-.12l.25.12a.61.61,0,0,1,.12.46,6.59,6.59,0,0,1-.49.79c-.21.28-.38.51-.52.66S35.32,69.59,35.08,69.41Zm-6,.32-.25-.12a.85.85,0,0,1-.15-.48L28.85,67l-1.58,1.59a.92.92,0,0,1-.64.26l-.24-.12a.53.53,0,0,1-.12-.43l.15-.27a4.42,4.42,0,0,0,1.07-.91,13.35,13.35,0,0,0,.88-1.14l-1.62,0a.51.51,0,0,1-.33-.15.55.55,0,0,1-.13-.42l.13-.25a1.73,1.73,0,0,1,1-.17h1.48A1.79,1.79,0,0,1,29,64a.58.58,0,0,1,.44-.13l.23.13a2,2,0,0,1,.12,1H31.1a1.48,1.48,0,0,1,.9.17.54.54,0,0,1,.12.44l-.12.23a.76.76,0,0,1-.41.15l-1.53,0a8.64,8.64,0,0,1,.78.68,8.81,8.81,0,0,0,.78.7.54.54,0,0,1,.17.47l-.12.25a.55.55,0,0,1-.44.12A10.42,10.42,0,0,1,29.79,67l-.05,1.86a2.41,2.41,0,0,1-.18.77A.55.55,0,0,1,29.12,69.73Zm6.19-8.17-.23-.12a6.25,6.25,0,0,0-.38-.61,1.32,1.32,0,0,1-.24-.66l.13-.24a.54.54,0,0,1,.44-.12l.23.12a6,6,0,0,0,.39.59,1,1,0,0,1,.22.68l-.12.24A.54.54,0,0,1,35.31,61.56Z"/><path class="cls-2" d="M48,62.53a1.69,1.69,0,0,1,.67-.08,1.74,1.74,0,0,1,.66.17,1.81,1.81,0,0,1,.42.45,1.26,1.26,0,0,1,0,1.3,1.32,1.32,0,0,1-1.14.51,1.09,1.09,0,0,1-.64-.13.91.91,0,0,1-.44-.53,2.14,2.14,0,0,1-.14-.8A1.16,1.16,0,0,1,48,62.53Z"/><path class="cls-2" d="M66.62,69.88a3.71,3.71,0,0,1-1-.52c-.3-.21-.59-.44-.88-.68a.59.59,0,0,1-.13-.44l.13-.25a.54.54,0,0,1,.44-.12,5,5,0,0,1,.61.45,2.58,2.58,0,0,0,.64.41,8,8,0,0,0,.16-1.52c0-.54,0-1.1,0-1.68l-5,.07a.66.66,0,0,1-.34-.15.58.58,0,0,1-.13-.44l.13-.24.24-.13,5.07-.07-.1-1.91-3.64.14-.25-.12a.63.63,0,0,1-.12-.47l.12-.24a4,4,0,0,1,1.19-.22l2.53,0c-.07-.3-.13-.56-.17-.79a2.63,2.63,0,0,0-.23-.65c-.4.07-.78.13-1.14.17s-.7.12-1,.2l-.24-.12a.69.69,0,0,1-.13-.47l.13-.24a16.8,16.8,0,0,1,2.65-.53c.89-.11,1.79-.19,2.69-.26a.73.73,0,0,1,.35.15.63.63,0,0,1,.12.47l-.12.24a3.17,3.17,0,0,1-1.12.16,4.7,4.7,0,0,0-1.14.11c.08.28.15.54.21.79s.11.51.16.77l2.16,0a2.74,2.74,0,0,1,1.11.19.58.58,0,0,1,.13.44l-.13.25a.74.74,0,0,1-.44.14,11.6,11.6,0,0,0-1.34-.08H67.43l.09,1.93,3.27.08a1.82,1.82,0,0,1,.7.14.6.6,0,0,1,.14.47l-.12.25a1.21,1.21,0,0,1-.81.12l-3.15-.1a16.21,16.21,0,0,1,0,1.84,12.78,12.78,0,0,1-.13,1.36,2.43,2.43,0,0,1-.3.81A.54.54,0,0,1,66.62,69.88Z"/><path class="cls-2" d="M80.61,69.88a.73.73,0,0,1-.35-.15.7.7,0,0,1-.14-.51l.09-6.17-.93,1.49a.58.58,0,0,1-.44.13l-.24-.13a.66.66,0,0,1-.13-.46,26.2,26.2,0,0,1,1.47-2.49A14.08,14.08,0,0,0,81.28,59a.57.57,0,0,1,.47-.15L82,59a.69.69,0,0,1,.13.47,10.83,10.83,0,0,0-.45,1,5.61,5.61,0,0,1-.49,1c-.06,4.87-.09,7.42-.07,7.66a1.15,1.15,0,0,1-.12.62A.89.89,0,0,1,80.61,69.88Zm4.87.1-.25-.12-.15-.32.1-7.65-1.15,0c-.07.34-.15.68-.25,1s-.2.66-.32,1A.54.54,0,0,1,83,64l-.24-.12a.73.73,0,0,1-.15-.46,12.74,12.74,0,0,0,.52-2q.16-1,.39-2a.55.55,0,0,1,.46-.15l.25.12a.56.56,0,0,1,.12.49L84.2,60.9l3.72.1a2.31,2.31,0,0,1,.91.18.65.65,0,0,1,.12.45l-.12.24a1,1,0,0,1-.67.15l-2-.05v1.64h1.53a1.67,1.67,0,0,1,.89.2.62.62,0,0,1,.12.44l-.12.24a.79.79,0,0,1-.59.13l-1.83-.05,0,1.4h2.2l.25.12a.62.62,0,0,1,.12.44l-.12.25a1.22,1.22,0,0,1-.64.17l-1.85,0,0,2.69-.12.25A.64.64,0,0,1,85.48,70Z"/><path class="cls-2" d="M100.77,62.53a1.62,1.62,0,0,1,.66-.08,1.7,1.7,0,0,1,.66.17,1.64,1.64,0,0,1,.42.45,1.26,1.26,0,0,1,0,1.3,1.34,1.34,0,0,1-1.14.51,1.12,1.12,0,0,1-.65-.13.91.91,0,0,1-.44-.53,2.36,2.36,0,0,1-.14-.8A1.18,1.18,0,0,1,100.77,62.53Z"/><path class="cls-2" d="M117,69.9a1.07,1.07,0,0,1-.63-.33,1.4,1.4,0,0,1-.44-.87l.12-.24a.58.58,0,0,1,.44-.13l.32.23.15.12.09-.65a3.82,3.82,0,0,0,0-.68l-1.27.14-1.19.13-.25-.12a.57.57,0,0,1-.12-.45l.12-.25a4.35,4.35,0,0,1,1.27-.27c.46,0,.9-.07,1.34-.12a1.89,1.89,0,0,0-.49-.76,1,1,0,0,1,.1-.54l.35-.27h-1.44a.83.83,0,0,1-.37-.15l-.54.54a.72.72,0,0,1-.59.22l-.24-.12a.55.55,0,0,1-.12-.44l.17-.3a4.28,4.28,0,0,0,.65-.57c.2-.22.39-.44.55-.65l-1.33.09a.61.61,0,0,1-.34-.14.63.63,0,0,1-.12-.47l.12-.24a6.18,6.18,0,0,1,1.24-.18c.43,0,.87,0,1.3-.07l0-1.58-1.46.07a.53.53,0,0,1-.34-.15.58.58,0,0,1-.13-.44l.13-.24a1.68,1.68,0,0,1,.87-.17,7.48,7.48,0,0,0,1,0,1.91,1.91,0,0,1,.18-1.1.58.58,0,0,1,.44-.13l.24.13a.56.56,0,0,1,.13.49l0,.59,1.13-.08.37-.63a.55.55,0,0,1,.46-.15l.25.12a.55.55,0,0,1,.12.44,6.4,6.4,0,0,1-.88,1.43c-.36.45-.71.9-1,1.36l1.91,0,.25.12a.59.59,0,0,1,.12.44l-.12.25a1.87,1.87,0,0,1-1.06.19l-2,.07-.48.55,2.33,0c.35.12.47.31.37.56l-1,1.13a2.43,2.43,0,0,1,.25.79l1-.1.24.12a.59.59,0,0,1,.13.44l-.13.25a2.88,2.88,0,0,1-1.1.22,8,8,0,0,1-.11,1.31,2.35,2.35,0,0,1-.39,1A.77.77,0,0,1,117,69.9Zm.25-9.15h-.34l0,.48Zm2.26,9a.48.48,0,0,1-.47-.59l.12-.24a4.24,4.24,0,0,0,.85-.74,3.67,3.67,0,0,0,.45-.72l.43-.84a5.06,5.06,0,0,0,.38-.9c-.14-.3-.3-.59-.45-.87a8.63,8.63,0,0,1-.43-.92,7.92,7.92,0,0,1-.34.85.57.57,0,0,1-.47.15l-.24-.12a.59.59,0,0,1-.13-.44,10.32,10.32,0,0,0,.9-2.51,26.28,26.28,0,0,0,.43-2.61.61.61,0,0,1,.46-.12l.25.12a.84.84,0,0,1,.12.59L121.23,61l3-.08.24.12a.66.66,0,0,1,.13.46l-.13.24a1.3,1.3,0,0,1-.8.15c-.15.69-.33,1.36-.53,2a16.36,16.36,0,0,1-.75,2c.29.46.6.91.92,1.36l1,1.36a1,1,0,0,1,.42.76l-.13.24a.54.54,0,0,1-.44.12,1,1,0,0,1-.46-.34l-1.81-2.44q-.32.64-.66,1.26a5.7,5.7,0,0,1-.83,1.12A1.38,1.38,0,0,1,119.52,69.78Zm2.33-5.16a10.77,10.77,0,0,0,.48-1.38c.13-.45.25-.91.36-1.37l-1.6.07-.15.81a7.7,7.7,0,0,1,.43.92A5,5,0,0,0,121.85,64.62Z"/><path class="cls-2" d="M141.41,65.57a.64.64,0,0,1-.35-.14v-.05H141a.64.64,0,0,1-.12-.44l.15-.74-8.66,0,.15.91-.13.24a.66.66,0,0,1-.46.13l-.25-.13a2,2,0,0,1-.23-.79c0-.29-.05-.58-.08-.88s.05-.46.23-.49a7.33,7.33,0,0,1,1.19,0l-.1-3.59c0-.34.08-.53.28-.57s.47-.09.79-.14.65-.08,1-.1L135,59a.56.56,0,0,1,.12.44l-.12.25a4.8,4.8,0,0,1-1.32.27l0,.69H135a.45.45,0,0,1,.25.24v.21a.44.44,0,0,1-.25.25l-1.27,0v.52h1.12a.42.42,0,0,1,.25.24v.2a.45.45,0,0,1-.25.24l-1.1,0,0,.71,6.05,0v-.76a2.25,2.25,0,0,1-1.14-.14.43.43,0,0,1-.08-.32.44.44,0,0,1,.25-.25h.92l0-.46-1,.07-.27-.15a.39.39,0,0,1-.07-.33l.09-.17a1.65,1.65,0,0,1,.59-.14h.64V59.9l-.88,0-.25-.13a.63.63,0,0,1-.14-.49l.12-.24a.74.74,0,0,1,.59-.12l1.31.13c.15,0,.22.14.22.4l.07,3.82a3.15,3.15,0,0,1,1.14.07c.2.09.23.33.09.75l-.24,1.39A.77.77,0,0,1,141.41,65.57ZM136.88,70l-1-.76,0-.29.12-.25a.59.59,0,0,1,.44-.12l.2.07v-.49l-4.21,0-.24-.12a.56.56,0,0,1-.12-.44l.12-.25a1.37,1.37,0,0,1,.86-.21l3.42.07-.27-.26c-.21-.32-.21-.55,0-.72l1.08-.54-1.71,0a2,2,0,0,1-.94-.22.62.62,0,0,1-.12-.44l.12-.24a.67.67,0,0,1,.54-.13h3.61c.4.13.52.32.37.57a6.84,6.84,0,0,1-1.79,1.37l.14.54,3.72-.1.25.12a.65.65,0,0,1,.12.46l-.12.24a1.19,1.19,0,0,1-.72.18l-3.12.07a5.21,5.21,0,0,1,0,.91,2.32,2.32,0,0,1-.24.73C137.22,70,137.07,70,136.88,70Zm-1.18-9.29a.45.45,0,0,1-.24-.25v-.22l.24-.27.42-.2-.24-.17a.43.43,0,0,1-.1-.37.47.47,0,0,1,.24-.24h.25a2.39,2.39,0,0,0,.59.32,1.13,1.13,0,0,1,.93-.44.43.43,0,0,1,.24.24v.2c0,.11-.22.24-.51.39l.22.2a.36.36,0,0,1-.17.58h-.2l-.61-.29A2.45,2.45,0,0,1,135.7,60.66Zm1.84,2.17c-.24-.13-.49-.28-.73-.44a1.38,1.38,0,0,1-.91.39.47.47,0,0,1-.25-.25v-.19a.47.47,0,0,1,.25-.25l.29-.15L136,61.7a.38.38,0,0,1-.07-.32.45.45,0,0,1,.24-.25h.25l.51.35a1.24,1.24,0,0,1,1-.55.44.44,0,0,1,.25.25v.2a2.34,2.34,0,0,1-.64.59,1.12,1.12,0,0,1,.56.42v.19a.42.42,0,0,1-.24.25Z"/><polygon class="cls-3" points="96.57 50.58 51.26 50.58 51.26 15.88 73.75 3.48 96.57 15.88 96.57 50.58"/><path class="cls-1" d="M70.15,21h-.39c-.08-.05-.15-.09-.14-.13a.65.65,0,0,1-.36,0l-.22,0-.22,0c-.06,0,.06,0,0-.05a.19.19,0,0,1-.13,0,.67.67,0,0,1-.19-.06h0a1.23,1.23,0,0,1-.48-.27,1.77,1.77,0,0,1-.36-.45l0,.06a.52.52,0,0,1-.06-.18c-.06,0,0,0,0,.1s.08.14,0,.11a.62.62,0,0,0-.06-.18l0-.12s0-.08-.05-.13-.08-.36,0-.41-.06.06-.06-.11l0-.05,0,0c0-.13,0-.19.07-.19a.21.21,0,0,0,0,.11c0-.15,0-.44,0-.49l0,.17c0-.12,0-.25,0-.39v-.43a1.7,1.7,0,0,0-.27-.83v0l-.2-.3a.42.42,0,0,0-.08-.12l-.07-.08-.11-.1h0l-.13-.08-.15-.09c.11,0-.15-.16,0-.11a.74.74,0,0,0-.3-.09h-.21l-.06-.06-.12,0h-.2c.18,0-.14-.07.07-.1a.88.88,0,0,0-.31,0h-.13l-.11,0-.19.06a.49.49,0,0,1-.17,0c-.08.09,0,.07.12,0l.17,0c.06,0,0,0,0,.07l-.11,0-.12,0a.75.75,0,0,1-.23,0,.8.8,0,0,0-.36.17s0,0,0-.05a.24.24,0,0,0-.09.06l-.07.08a1.33,1.33,0,0,1-.17.16c0,.12-.15.18-.09.25a1.73,1.73,0,0,1,.19-.28.54.54,0,0,0-.07.13s0,.09-.07.14l-.07.16-.1.18a.52.52,0,0,1,0-.19c-.06.08-.07.17-.12.25s0-.05,0-.09,0-.1.07-.15a1.51,1.51,0,0,1,.09-.18.7.7,0,0,0,.09-.17.44.44,0,0,0-.12.19c0,.07-.06.11-.07,0a.68.68,0,0,1,0,.14s0,.09-.07.14,0,.1-.06.15a1.23,1.23,0,0,0,0,.19l0,0a1.7,1.7,0,0,1,0,.21l0-.15c0,.22-.08.42,0,.59,0-.18,0-.21,0-.2s0,0,.06-.05c.06.47-.12.29-.1.77,0-.09,0-.22.05-.12a1.14,1.14,0,0,1-.06.29c0,.34,0-.06.08.09s0,.18,0,.31h0c0,.09,0,.13,0,.17a.11.11,0,0,0,0,.05s0,0,0,.2l0-.15,0,.16,0,0a.48.48,0,0,1-.05.2s0,.05,0,.08l-.07.09c.05,0,.07.07,0,.2s0-.08-.14.09a.32.32,0,0,1,0-.09l0,0,.05,0s0-.06,0-.08-.18.21-.24.26l.07-.05-.09.13-.11.12s0,0,0-.05a1.26,1.26,0,0,1-.16.13s0-.08.08-.16l-.11.09a.57.57,0,0,1-.13.08s-.15,0-.12,0a2.82,2.82,0,0,0-.27.09l-.15,0a1.2,1.2,0,0,1-.19,0l-.09,0a2.85,2.85,0,0,0-.72,0l-.17-.07c-.13,0-.06,0,0,.06s.06,0-.14.07-.12-.05-.23-.05a3.61,3.61,0,0,1-.61.28,1.06,1.06,0,0,1,.21-.11l-.2,0a1.39,1.39,0,0,1,.24-.17s0,0-.06,0,0,.07-.11.11l-.24.16c-.17.11-.32.26-.28.32l-.11.08s0,0,.05-.07-.13.13-.14.2a.26.26,0,0,1,0,.11.39.39,0,0,1-.08.16c-.06.1-.12.17-.1.09a1.14,1.14,0,0,0-.06.25c0,.05,0,.05,0,0a.83.83,0,0,0,0,.15,1.2,1.2,0,0,0,0,.2h0c0,.06,0,.19,0,.25s0-.05,0,0,0,.14,0,.21,0,0-.05,0a.46.46,0,0,1,0-.21.23.23,0,0,0,0,.23,1.06,1.06,0,0,1,0,.14,1.43,1.43,0,0,1,0,.26l0-.1,0-.1a.36.36,0,0,0,0,.11.57.57,0,0,0,0,.13s0,.09,0,.15l0,.17s0-.16,0-.25,0-.14.07,0a.76.76,0,0,0,0,.11.37.37,0,0,0,.08.15s0,.13.11.26l-.06,0c.11.14.14.1.22.16a.54.54,0,0,1,.1.17.2.2,0,0,1,0,.1c.12.11.09.06.07,0s0-.09.11,0a1.17,1.17,0,0,0,.66.31c.16.07,0,0,0,.07h.17s0,0,0,0,0-.06.23,0c0,0,.13,0,.25,0a.67.67,0,0,0,.37,0c.06,0,0,0,0,.07a4.88,4.88,0,0,0,.53-.11l.21,0c-.07,0-.06-.05,0-.08l.24-.05h0l0,0,0,0,.13,0s0,0-.09,0L62,24.76c-.08,0-.14.06-.13.1H62s0,0,0,0,0,0,.09,0l0,.08,0,0a.69.69,0,0,1,.15.07.71.71,0,0,1,.15.08l.09,0,.1,0,.19.06a1,1,0,0,1,.41.3c-.1-.05-.08,0-.13.07a.36.36,0,0,0,0-.09l-.09-.09-.12-.08-.12-.08c.08.06,0,.07,0,.07l.15.09.14.11s0,.08.06.17.07,0,.12.07a2.43,2.43,0,0,1,.15.26s0,0-.06,0l0-.05a.93.93,0,0,1-.05-.1.3.3,0,0,0,.11.2.24.24,0,0,1,.06.08.28.28,0,0,1,0,.13s0-.07,0-.08a.46.46,0,0,1,0,.2c0,.07,0,.12,0,.09v0c0,.14,0,.39,0,.6s0,.38.08.4-.11,0-.13-.06l.15.29a.47.47,0,0,1,0,.1c0,.06,0,.12,0,.18l-.06,0c-.06,0-.12,0-.14-.14a.66.66,0,0,0,0,.15,1.49,1.49,0,0,0,0,.21c0-.06.09-.16.1-.08a.8.8,0,0,0,0,.19,1.94,1.94,0,0,0,0,.22c0-.08.12,0,.17.08s-.1.06-.13,0a1.86,1.86,0,0,0,.26.23c-.06,0-.09,0-.07.12s0,0,.1.11a1.42,1.42,0,0,0,.16.17l-.08-.12a.5.5,0,0,0,.33.19l.15,0,.19.07s-.17.09,0,.18l.3-.07h0a2.32,2.32,0,0,0,.38.06l-.07,0-.24.06a.85.85,0,0,1-.22,0c.13.07,0,.05.23.1,0,0,0,0,0,0l-.15,0,.25.06.13,0,.13,0s.09-.05.19-.07.19-.05.17-.08a2,2,0,0,1-.26.06l-.28,0s0,0,.05-.05l.15-.06.44-.1s0,0,0,.07-.05.07-.05.08a3.66,3.66,0,0,1,.35-.12.57.57,0,0,1-.13.08.48.48,0,0,0,.24-.11.71.71,0,0,1,.26-.14c.07,0,.25-.07.24-.11a.27.27,0,0,1-.24-.12l.19-.16v0l0,0,0,0,.17-.19s0,.05,0,.1,0,.12,0,.1,0-.09,0-.12,0,.07.13-.09,0-.11.06-.15,0,0,0,0l-.08.08a1,1,0,0,1,.09-.16s0,0,0-.08a.58.58,0,0,0,0-.11s0,0-.06-.11a.28.28,0,0,1,0-.09c0-.07,0-.13,0-.2h0a3.82,3.82,0,0,0,0-.43c0-.13,0-.25,0-.41s0-.18.07-.11a.41.41,0,0,1,0-.19c.06-.18,0,.22.08.08s-.06-.25-.08-.39c-.06,0,0,.32,0,.46s-.06,0-.08-.09v-.33a1.84,1.84,0,0,1,.12-.66,3.29,3.29,0,0,1,.21-.38,1.54,1.54,0,0,1,.5-.46.93.93,0,0,0,.1-.1,1.72,1.72,0,0,1,.91-.24h.33v0l.17,0h0s-.06,0,0,0l.07,0h.6A1.83,1.83,0,0,0,72,22.87h0A1.84,1.84,0,0,0,70.15,21ZM58.58,23.26c.07.06.06.11.06.21S58.56,23.31,58.58,23.26Zm3.61,1.61a.47.47,0,0,1,.15.06A.42.42,0,0,1,62.19,24.87Z"/><path class="cls-4" d="M58.74,22l0-.08Z"/><path class="cls-4" d="M58.56,22.56h0S58.56,22.53,58.56,22.56Z"/><path class="cls-4" d="M61.76,24.87a.68.68,0,0,0,.13,0Z"/><path class="cls-4" d="M61.58,20.74l.09,0C61.53,20.69,61.59,20.72,61.58,20.74Z"/><path class="cls-4" d="M67.48,19v0S67.48,19.05,67.48,19Z"/><path class="cls-4" d="M67.21,28Z"/><path class="cls-4" d="M63.65,17.07h0C63.69,17,63.67,17,63.65,17.07Z"/><polygon class="cls-4" points="63.34 27.78 63.35 27.79 63.35 27.77 63.34 27.78"/><path class="cls-4" d="M63.31,27.51a.51.51,0,0,1,0,.14v.13l.12-.1Z"/><path class="cls-4" d="M58.65,22.23a.06.06,0,0,1,0,0A.08.08,0,0,0,58.65,22.23Z"/><path class="cls-4" d="M63.26,18.75v0Z"/><path class="cls-4" d="M61.9,24.89a0,0,0,0,1,0,0S61.87,24.88,61.9,24.89Z"/><path class="cls-4" d="M61.57,20.75Z"/><path class="cls-4" d="M67,29l-.09.07S67,29,67,29Z"/><path class="cls-4" d="M68.67,24.75h.12Z"/><path class="cls-4" d="M67.39,25.92l.06,0a.19.19,0,0,1,0-.08A.19.19,0,0,1,67.39,25.92Z"/><path class="cls-4" d="M67.34,26.37s0,.25,0,0C67.36,26.38,67.38,26.2,67.34,26.37Z"/><path class="cls-4" d="M64.38,29.51s-.07-.06,0-.05c-.14-.05-.2-.12-.18,0s.12.07.14.07,0,0,.13,0S64.42,29.54,64.38,29.51Z"/><path class="cls-4" d="M64.34,29.46l.07,0Z"/><path class="cls-4" d="M58.71,24h0a.45.45,0,0,0,0-.13Z"/><polygon class="cls-4" points="58.79 21.74 58.77 21.78 58.85 21.75 58.79 21.74"/><path class="cls-4" d="M60.29,20.7c.05,0,.07,0,.05,0l-.19,0Z"/><path class="cls-4" d="M60.15,20.7l-.06,0Z"/><path class="cls-1" d="M89.28,41.24v0h0c0-.1,0-.17,0-.11v-.26c0,.16.16,0,.23-.1s0,0-.06-.19c0,.06,0,.4-.09.25a.6.6,0,0,1,0-.32c0,.09-.07-.22-.12-.26V38.8h0v-.14c0-.13.06.26.08.08a2.17,2.17,0,0,1,0,.65l-.06,0a.43.43,0,0,0,0-.24c0,.11-.08.4,0,.51l0-.18a2.55,2.55,0,0,1,.08.64c.06-.1,0,0,.06-.21-.09.14,0-.59-.09-.36.09-.17,0-.29.11-.51,0,0,0,.08,0-.11,0,0,0,0,0,0h0a.29.29,0,0,1,0,.1,2.74,2.74,0,0,1-.07-.5c0-.12,0,0,0,0l0-.15s.07-.31.1,0v-.24a1.45,1.45,0,0,0,0-.46c0-.11,0-.29,0-.19l0-.38h0a6,6,0,0,1,0-1.2,3.34,3.34,0,0,1,0-.47l0,0a1.68,1.68,0,0,1,0-.31v-.18a.24.24,0,0,0,0-.11.83.83,0,0,0-.17-.59,1.61,1.61,0,0,0-.52-.5l0,0a1.3,1.3,0,0,0-.73-.17l0,0c-.22,0-.55,0-.88,0a.3.3,0,0,1,.17,0c-.4-.1-.84.08-1.2,0a.41.41,0,0,1-.22,0h0l-.13,0,.11,0-.28,0,0-.05h0c-.1,0-.08,0,0,.06l-.13,0c-.08-.08-.27,0-.38-.06s-.46,0-.56.1a.86.86,0,0,0-.32,0l0-.06-.25.08c-.16,0-.22-.06-.07-.11-.36.08-.29,0-.6.1v0c-.11,0-.29.06-.35,0-.25-.07-1.23,0-1.87-.08.13.12-.29-.05-.32,0s-.12,0,0-.07a3,3,0,0,0-.71,0s.07,0,0-.06a.53.53,0,0,1-.13,0s0,0,.1,0c-.34,0-.37.09-.39.17a.54.54,0,0,0-.38,0s-.15,0,0-.06c-.11,0-.7,0-.72,0a.41.41,0,0,0-.19,0h-.47a.25.25,0,0,1-.17,0,.9.9,0,0,0-.27,0h0l-.16,0-.09,0-.1.06s-.09.05-.3.21h0s-.06.12-.16.22a.78.78,0,0,0-.22.41l.06-.1a.35.35,0,0,1,0,.13l-.07.16a1,1,0,0,0-.1.29s0-.05,0-.09c-.07.39.06.05.07.34,0,0-.08-.07-.09.12a5.77,5.77,0,0,1,0,.84c0-.06,0-.12.07,0s-.1.56,0,.75c0,0,0,0,0,0a4.55,4.55,0,0,0,.08.61c-.17.15.08,1-.07,1v.48h0a1.1,1.1,0,0,0,.07.52c0,.08,0,0,0,0a2.43,2.43,0,0,0,0,.87l0,0c0,.11-.07.66,0,1.1a.12.12,0,0,1,0-.05c.06.5-.14,1.2,0,1.38l0,.33c0-.43.08.06.11-.11,0,.17,0,.43-.06.23v0c-.1-.07,0,.53-.1.52,0,.42,0,.84,0,1.24l0,.61a1.42,1.42,0,0,0,.17.67.5.5,0,0,1,0-.12,1.35,1.35,0,0,0,.15.26c0,.08,0,.13-.11-.06l0,.1.09.09a.51.51,0,0,0,.14.07c.16.15.12.13,0,.1s-.17-.11-.12-.06a.58.58,0,0,0,.15.11l0,0A.46.46,0,0,0,77,47l.1,0,.14.06.11.06s0,0,0,0,0,0,.1,0l.2,0h.18l-.14-.05c.16,0,.33,0,.17-.07a10.42,10.42,0,0,0,1.43.07,3.72,3.72,0,0,1,.69,0c-.07,0-.11-.07.12-.07-.08.14.41.06.6.16-.17-.06.64,0,.38-.11.19,0,0,0,.16.09.45-.06,1,0,1.54,0,0,0-.08,0,0-.07l.29.09c.11,0,.1-.1.3,0,0,0-.07,0,0,0,1.09.08,2.23-.08,3.33.09-.15,0,0,0,.06,0-.07,0,0,0,0-.07l.46.07c.09-.07.5,0,.55-.07h-.15c.11,0,0-.09-.09-.14h.46a1.22,1.22,0,0,0,1.22-1.22Zm0-.38v-.31A1.07,1.07,0,0,1,89.28,40.86Zm0-.37h0v0Zm.23-2.61h0C89.53,37.74,89.52,37.79,89.51,37.88Zm-.11-1.13c0,.29-.05.13,0,.18,0,.56.15.48.09.94-.06.19-.11,0-.15.05a4.06,4.06,0,0,1,0-.54l0,.21a.91.91,0,0,1,0-.33.17.17,0,0,0,0,.08V36.19A1.82,1.82,0,0,1,89.4,36.75ZM89.28,35a1,1,0,0,0,0-.24.68.68,0,0,1,.07.2S89.29,34.93,89.28,35Zm-1-1.32a2.4,2.4,0,0,1,.24.12.81.81,0,0,1,.23.22,0,0,0,0,1,0,0,1,1,0,0,0-.25-.15l0-.07-.06,0a1.28,1.28,0,0,0-.28-.07A.15.15,0,0,1,88.33,33.63Zm-1.5,0,.06,0,.27,0-.34.15h-.44A1.49,1.49,0,0,1,86.83,33.6Zm-2.34,0s0,0,0,0S84.44,33.61,84.49,33.61Zm-.65,0s0,.05,0,.09h-.2Zm-4.36,0s0,0,0,.06h.06c.05,0,.06,0,.06,0h-.16l0,0-.08,0h-.07l-.13,0Zm-2,13.57-.06,0,.1,0Z"/><path class="cls-4" d="M88.13,47.31c-.09,0-.06,0-.07,0C88.21,47.34,88.12,47.29,88.13,47.31Z"/><path class="cls-4" d="M89.25,46.55a1.17,1.17,0,0,0,0-.2c0,.06,0,.12,0,.17Z"/><path class="cls-4" d="M89.43,45.68a2,2,0,0,1,0-.35.47.47,0,0,0,0,.28,1.36,1.36,0,0,1,0,.35s0,0,0,0,0,.07,0,.11v-.22C89.44,45.81,89.43,45.75,89.43,45.68Z"/><path class="cls-4" d="M89.58,44.73s0-.14,0,.14v-.14Z"/><path class="cls-4" d="M89.58,44.84c0,.12,0-.08,0,0Z"/><path class="cls-4" d="M89.57,44.29l0,.16s0-.18,0-.13C89.61,44.16,89.59,44.19,89.57,44.29Z"/><path class="cls-4" d="M89.51,44.14v.08S89.53,44.18,89.51,44.14Z"/><path class="cls-4" d="M89.53,44.3s0,0,0,.09l0-.17S89.49,44.24,89.53,44.3Z"/><path class="cls-4" d="M89.48,44.54c0,.3.07.25.06,0C89.52,44.58,89.51,44.7,89.48,44.54Z"/><path class="cls-4" d="M89.35,45.28l0,.12,0,.1S89.38,45.27,89.35,45.28Z"/><path class="cls-4" d="M89.6,43.3s0,.05-.06.07l0,.11C89.57,43.42,89.58,43.31,89.6,43.3Z"/><path class="cls-4" d="M89.54,43.37l0-.18C89.51,43.35,89.53,43.38,89.54,43.37Z"/><polygon class="cls-4" points="89.43 44.11 89.49 44.4 89.43 44.05 89.43 44.11"/><polygon class="cls-4" points="89.61 42.63 89.64 42.73 89.59 42.55 89.61 42.63"/><path class="cls-4" d="M89.61,41.85a1,1,0,0,1,0,.34c0,.07.05-.1.07,0A1.4,1.4,0,0,0,89.61,41.85Z"/><path class="cls-4" d="M89.61,41.85a.5.5,0,0,0,0-.16Z"/><path class="cls-4" d="M89.57,42.76l0,.06v.07A.2.2,0,0,0,89.57,42.76Z"/><path class="cls-4" d="M89.52,42.83h0v0Z"/><path class="cls-4" d="M89.52,42.91v0Z"/><path class="cls-4" d="M89.47,43.65c0-.1,0-.32-.08-.11S89.44,43.5,89.47,43.65Z"/><path class="cls-4" d="M89.5,43.2l0-.2v.18S89.49,43.14,89.5,43.2Z"/><polygon class="cls-4" points="89.46 42.91 89.47 43 89.47 42.93 89.46 42.91"/><path class="cls-4" d="M89.54,42a1.06,1.06,0,0,1,0-.26c0,.1,0,.21,0,.32S89.54,42.13,89.54,42Z"/><path class="cls-4" d="M89.53,42.41v0S89.52,42.41,89.53,42.41Z"/><path class="cls-4" d="M89.52,40.77v0h0Z"/><path class="cls-4" d="M89.5,42.08a.5.5,0,0,0,0,.18c0-.06,0-.13,0-.19S89.49,42.06,89.5,42.08Z"/><path class="cls-4" d="M89.56,41.42a.59.59,0,0,0,0,.14A.39.39,0,0,0,89.56,41.42Z"/><path class="cls-4" d="M89.54,42.36v0S89.54,42.35,89.54,42.36Z"/><path class="cls-4" d="M89.54,42.36l0-.1a.51.51,0,0,0,0,.13A0,0,0,0,1,89.54,42.36Z"/><path class="cls-4" d="M89.51,41.14v.07a1.47,1.47,0,0,1,0-.26c0-.13,0-.15,0-.16v.35Z"/><path class="cls-4" d="M89.51,41.55c0-.06-.06-.24-.11-.13s0,.16.06.29c0-.36,0,.1.05-.16,0,.07,0,.14,0,.2a1.11,1.11,0,0,1,0-.19h0s0,0,0,0h0l0,0c0-.1,0,0,0,0h0l0-.36C89.5,41.29,89.51,41.38,89.51,41.55Z"/><path class="cls-4" d="M89.29,43.35h0S89.29,43.31,89.29,43.35Z"/><path class="cls-4" d="M89.41,43h0Z"/><path class="cls-4" d="M89.35,43.36v0a2,2,0,0,1,.06-.29.45.45,0,0,0-.09.16.7.7,0,0,1,0,.13c0,.08,0,0,0,0S89.33,43.52,89.35,43.36Z"/><path class="cls-4" d="M89.4,42.37l0-.3,0,.15h0C89.36,42.38,89.39,42.34,89.4,42.37Z"/><polygon class="cls-4" points="89.54 40.73 89.58 40.77 89.52 40.6 89.54 40.73"/><polygon class="cls-4" points="89.53 40.35 89.57 40.36 89.55 40.26 89.53 40.35"/><path class="cls-4" d="M85.83,33.49c-.13,0-.27-.1-.25-.05l0,0A.7.7,0,0,1,85.83,33.49Z"/><path class="cls-4" d="M89.52,36.37c0-.11,0-.19,0-.27C89.52,36.23,89.48,36.34,89.52,36.37Z"/><path class="cls-4" d="M76.28,37.06s0,.07,0,.07S76.3,37.05,76.28,37.06Z"/><path class="cls-4" d="M89.54,36.1a.69.69,0,0,0,0-.32.13.13,0,0,1,0,.06A1.09,1.09,0,0,1,89.54,36.1Z"/><path class="cls-4" d="M87,47.25h0Z"/><path class="cls-4" d="M89.55,38.79c0,.08,0,0,0,0Z"/><path class="cls-4" d="M89.36,39.15s0,0,0,0S89.37,39.16,89.36,39.15Z"/><path class="cls-4" d="M89.53,38.91s0-.07,0-.11A.54.54,0,0,0,89.53,38.91Z"/><path class="cls-4" d="M89.55,38.89V39S89.56,39,89.55,38.89Z"/><path class="cls-4" d="M89.55,38.79v0Z"/><path class="cls-4" d="M89.57,39.62v0Z"/><path class="cls-4" d="M89.56,39.46c0,.09,0,.12,0,.16s0,0,0,0Z"/><path class="cls-4" d="M89.41,39.8s0,.13,0,.25v0C89.45,40.07,89.43,39.94,89.41,39.8Z"/><path class="cls-4" d="M89.39,40.08a.49.49,0,0,1,0,.12S89.4,40.15,89.39,40.08Z"/><path class="cls-4" d="M89.52,38.52c0,.06,0,0,0,.07S89.49,38.19,89.52,38.52Z"/><polygon class="cls-4" points="89.28 39.9 89.33 39.86 89.29 39.79 89.28 39.9"/><path class="cls-4" d="M89.31,38.92v.2s0,0,0,.05C89.32,39.05,89.33,38.91,89.31,38.92Z"/><path class="cls-4" d="M89.33,39.33s0-.11,0-.16A.67.67,0,0,0,89.33,39.33Z"/><path class="cls-4" d="M89.29,36.67s0,.14,0,.1v-.22S89.28,36.59,89.29,36.67Z"/><polygon class="cls-4" points="87.6 47.31 87.77 47.33 87.66 47.3 87.6 47.31"/><path class="cls-4" d="M87.92,47.23l0,.07.1-.06S88,47.25,87.92,47.23Z"/><path class="cls-1" d="M71.58,41.24v0h0c0-.1,0-.17,0-.11v-.26c0,.16.16,0,.23-.1s0,0-.06-.19c0,.06,0,.4-.09.25a.6.6,0,0,1,0-.32c0,.09-.07-.22-.12-.26V38.8h0v-.14c0-.13.06.26.08.08a2.17,2.17,0,0,1,0,.65l-.06,0a.43.43,0,0,0,0-.24c0,.11-.09.4,0,.51l0-.18a2.55,2.55,0,0,1,.08.64c.06-.1,0,0,.06-.21-.09.14,0-.59-.09-.36.09-.17,0-.29.11-.51,0,0,0,.08,0-.11,0,0,0,0,0,0h0a.29.29,0,0,1,0,.1,2.74,2.74,0,0,1-.07-.5c0-.12,0,0,0,0l0-.15s.07-.31.1,0v-.24a1.45,1.45,0,0,0,0-.46c0-.11,0-.29,0-.19l0-.38h0a6,6,0,0,1,0-1.2,3.34,3.34,0,0,1,0-.47l0,0a1.68,1.68,0,0,1,0-.31v-.18a.24.24,0,0,0,0-.11.83.83,0,0,0-.17-.59,1.61,1.61,0,0,0-.52-.5l0,0a1.3,1.3,0,0,0-.73-.17l0,0c-.22,0-.55,0-.88,0a.27.27,0,0,1,.16,0c-.39-.1-.83.08-1.19,0a.41.41,0,0,1-.22,0h0l-.13,0,.11,0-.28,0,0-.05h0c-.1,0-.08,0,0,.06l-.13,0c-.08-.08-.27,0-.38-.06s-.46,0-.56.1a.92.92,0,0,0-.33,0l0-.06-.25.08c-.16,0-.22-.06-.07-.11-.36.08-.29,0-.6.1v0c-.11,0-.29.06-.35,0-.25-.07-1.23,0-1.87-.08.13.12-.29-.05-.32,0s-.12,0,0-.07a3,3,0,0,0-.71,0s.07,0,0-.06a.53.53,0,0,1-.13,0s0,0,.1,0c-.34,0-.37.09-.39.17a.54.54,0,0,0-.38,0c-.06,0-.15,0,.05-.06-.11,0-.71,0-.72,0a.41.41,0,0,0-.19,0h-.47a.25.25,0,0,1-.17,0,.9.9,0,0,0-.27,0h0l-.16,0-.09,0-.1.06s-.09.05-.3.21h0s-.06.12-.16.22a.78.78,0,0,0-.22.41l.06-.1a.35.35,0,0,1,0,.13l-.07.16a1,1,0,0,0-.1.29s0-.05,0-.09c-.06.39.07.05.08.34,0,0-.08-.07-.09.12a5.77,5.77,0,0,1,0,.84c0-.06.05-.12.07,0s-.1.56,0,.75c0,0,0,0,0,0a4.55,4.55,0,0,0,.08.61c-.17.15.08,1-.07,1v.48h0a1.1,1.1,0,0,0,.07.52c0,.08,0,0,0,0a2.43,2.43,0,0,0,0,.87l0,0c0,.11-.07.66,0,1.1a.12.12,0,0,1,0-.05c.06.5-.14,1.2,0,1.38l0,.33c0-.43.08.06.11-.11,0,.17,0,.43-.06.23v0c-.09-.07,0,.53-.09.52,0,.42,0,.84,0,1.24l0,.61a1.42,1.42,0,0,0,.17.67.5.5,0,0,1,0-.12,1.35,1.35,0,0,0,.15.26c0,.08,0,.13-.11-.06a.47.47,0,0,0,.05.1l.09.09a.51.51,0,0,0,.14.07c.16.15.12.13,0,.1S59,46.85,59,46.9l.14.11,0,0a.46.46,0,0,0,.16.06l.1,0,.14.06.11.06s0,0,0,0,0,0,.1,0l.2,0h.18L60,47.23c.16,0,.33,0,.17-.07a10.42,10.42,0,0,0,1.43.07,3.72,3.72,0,0,1,.69,0c-.07,0-.11-.07.12-.07-.08.14.41.06.6.16-.17-.06.64,0,.38-.11.19,0,0,0,.16.09.45-.06,1,0,1.54,0,0,0-.08,0,0-.07l.29.09c.11,0,.1-.1.3,0,0,0-.07,0,0,0,1.09.08,2.22-.08,3.33.09-.15,0,0,0,.06,0-.07,0,0,0,0-.07l.46.07c.09-.07.5,0,.55-.07H70c.11,0,0-.09-.09-.14h.46a1.22,1.22,0,0,0,1.22-1.22Zm0-.38v-.31A1.07,1.07,0,0,1,71.58,40.86Zm0-.37h0v0Zm.23-2.61h0C71.83,37.74,71.82,37.79,71.81,37.88Zm-.11-1.13c0,.29,0,.13,0,.18,0,.56.15.48.09.94-.06.19-.11,0-.15.05a4.06,4.06,0,0,1,0-.54l0,.21a.91.91,0,0,1,0-.33.17.17,0,0,0,0,.08V36.19A1.82,1.82,0,0,1,71.7,36.75ZM71.58,35a1,1,0,0,0,0-.24.68.68,0,0,1,.07.2S71.59,34.93,71.58,35Zm-1-1.32a2.4,2.4,0,0,1,.24.12.81.81,0,0,1,.23.22,0,0,0,0,1,0,0,1,1,0,0,0-.25-.15l0-.07-.06,0a1.28,1.28,0,0,0-.28-.07A.15.15,0,0,1,70.63,33.63Zm-1.5,0,.06,0,.27,0-.34.15h-.44A1.49,1.49,0,0,1,69.13,33.6Zm-2.34,0s0,0,0,0S66.74,33.61,66.79,33.61Zm-.65,0s0,.05,0,.09h-.2Zm-4.36,0s0,0-.05.06h.06c.05,0,.06,0,.06,0h-.16l0,0-.08,0h-.07l-.13,0ZM59.73,47.23l-.06,0,.1,0Z"/><path class="cls-4" d="M70.43,47.31c-.09,0-.06,0-.07,0C70.51,47.34,70.42,47.29,70.43,47.31Z"/><path class="cls-4" d="M71.55,46.55a1.17,1.17,0,0,0,0-.2.85.85,0,0,1-.06.17Z"/><path class="cls-4" d="M71.73,45.68a2,2,0,0,1,0-.35.47.47,0,0,0,0,.28,1.36,1.36,0,0,1,0,.35l0,0s0,.07,0,.11v-.22C71.74,45.81,71.73,45.75,71.73,45.68Z"/><path class="cls-4" d="M71.88,44.73s0-.14,0,.14v-.14Z"/><path class="cls-4" d="M71.88,44.84c0,.12,0-.08,0,0Z"/><path class="cls-4" d="M71.87,44.29l0,.16s0-.18,0-.13C71.91,44.16,71.89,44.19,71.87,44.29Z"/><path class="cls-4" d="M71.81,44.14v.08S71.83,44.18,71.81,44.14Z"/><path class="cls-4" d="M71.83,44.3s0,0,0,.09l0-.17S71.79,44.24,71.83,44.3Z"/><path class="cls-4" d="M71.78,44.54c0,.3.07.25.06,0C71.82,44.58,71.81,44.7,71.78,44.54Z"/><path class="cls-4" d="M71.65,45.28l0,.12,0,.1S71.68,45.27,71.65,45.28Z"/><path class="cls-4" d="M71.9,43.3s0,.05-.06.07l0,.11C71.87,43.42,71.88,43.31,71.9,43.3Z"/><path class="cls-4" d="M71.84,43.37l0-.18C71.81,43.35,71.83,43.38,71.84,43.37Z"/><polygon class="cls-4" points="71.73 44.11 71.79 44.4 71.73 44.05 71.73 44.11"/><polygon class="cls-4" points="71.91 42.63 71.94 42.73 71.89 42.55 71.91 42.63"/><path class="cls-4" d="M71.91,41.85a1,1,0,0,1,0,.34c0,.07,0-.1.07,0A1.4,1.4,0,0,0,71.91,41.85Z"/><path class="cls-4" d="M71.91,41.85a.5.5,0,0,0,0-.16Z"/><path class="cls-4" d="M71.87,42.76l-.05.06v.07A.2.2,0,0,0,71.87,42.76Z"/><path class="cls-4" d="M71.82,42.83h0v0Z"/><path class="cls-4" d="M71.82,42.91v0Z"/><path class="cls-4" d="M71.77,43.65c0-.1,0-.32-.09-.11S71.74,43.5,71.77,43.65Z"/><path class="cls-4" d="M71.8,43.2l0-.2v.18S71.79,43.14,71.8,43.2Z"/><polygon class="cls-4" points="71.76 42.91 71.77 43 71.77 42.93 71.76 42.91"/><path class="cls-4" d="M71.84,42a1.06,1.06,0,0,1,0-.26c0,.1,0,.21,0,.32S71.84,42.13,71.84,42Z"/><path class="cls-4" d="M71.83,42.41v0S71.82,42.41,71.83,42.41Z"/><path class="cls-4" d="M71.82,40.77v0h0Z"/><path class="cls-4" d="M71.8,42.08a.5.5,0,0,0,0,.18c0-.06,0-.13,0-.19S71.79,42.06,71.8,42.08Z"/><path class="cls-4" d="M71.86,41.42a.59.59,0,0,0,0,.14A.39.39,0,0,0,71.86,41.42Z"/><path class="cls-4" d="M71.84,42.36v0S71.84,42.35,71.84,42.36Z"/><path class="cls-4" d="M71.84,42.36l0-.1a.51.51,0,0,0,0,.13A0,0,0,0,1,71.84,42.36Z"/><path class="cls-4" d="M71.81,41.14v.07a1.47,1.47,0,0,1,0-.26c0-.13,0-.15,0-.16v.35Z"/><path class="cls-4" d="M71.81,41.55c0-.06-.06-.24-.11-.13s0,.16.06.29c0-.36,0,.1,0-.16a1.27,1.27,0,0,0,0,.2,1.11,1.11,0,0,1,0-.19h0s0,0,0,0h0l0,0c0-.1,0,0,0,0h0l0-.36C71.8,41.29,71.81,41.38,71.81,41.55Z"/><path class="cls-4" d="M71.59,43.35h0S71.59,43.31,71.59,43.35Z"/><path class="cls-4" d="M71.71,43h0Z"/><path class="cls-4" d="M71.65,43.36v0a2,2,0,0,1,.06-.29.45.45,0,0,0-.09.16.7.7,0,0,1,0,.13c0,.08,0,0,0,0S71.63,43.52,71.65,43.36Z"/><path class="cls-4" d="M71.7,42.37l0-.3,0,.15h0C71.66,42.38,71.69,42.34,71.7,42.37Z"/><polygon class="cls-4" points="71.84 40.73 71.89 40.77 71.82 40.6 71.84 40.73"/><polygon class="cls-4" points="71.83 40.35 71.87 40.36 71.85 40.26 71.83 40.35"/><path class="cls-4" d="M68.13,33.49c-.13,0-.27-.1-.25-.05l0,0A.7.7,0,0,1,68.13,33.49Z"/><path class="cls-4" d="M71.82,36.37c0-.11,0-.19,0-.27C71.82,36.23,71.78,36.34,71.82,36.37Z"/><path class="cls-4" d="M58.58,37.06s0,.07,0,.07S58.59,37.05,58.58,37.06Z"/><path class="cls-4" d="M71.84,36.1a.69.69,0,0,0,0-.32.13.13,0,0,1,0,.06A1.09,1.09,0,0,1,71.84,36.1Z"/><path class="cls-4" d="M69.29,47.25h0Z"/><path class="cls-4" d="M71.85,38.79c0,.08,0,0,0,0Z"/><path class="cls-4" d="M71.66,39.15s0,0,0,0S71.67,39.16,71.66,39.15Z"/><path class="cls-4" d="M71.83,38.91s0-.07,0-.11A.54.54,0,0,0,71.83,38.91Z"/><path class="cls-4" d="M71.85,38.89V39S71.86,39,71.85,38.89Z"/><path class="cls-4" d="M71.85,38.79v0Z"/><path class="cls-4" d="M71.87,39.62v0Z"/><path class="cls-4" d="M71.86,39.46c0,.09,0,.12,0,.16s0,0,0,0Z"/><path class="cls-4" d="M71.71,39.8s0,.13,0,.25v0C71.75,40.07,71.73,39.94,71.71,39.8Z"/><path class="cls-4" d="M71.69,40.08a.24.24,0,0,1,0,.12S71.7,40.15,71.69,40.08Z"/><path class="cls-4" d="M71.82,38.52c0,.06.05,0,0,.07S71.79,38.19,71.82,38.52Z"/><polygon class="cls-4" points="71.58 39.9 71.63 39.86 71.59 39.79 71.58 39.9"/><path class="cls-4" d="M71.61,38.92v.2s0,0,0,.05C71.62,39.05,71.63,38.91,71.61,38.92Z"/><path class="cls-4" d="M71.63,39.33a.76.76,0,0,1,0-.16A.67.67,0,0,0,71.63,39.33Z"/><path class="cls-4" d="M71.59,36.67s0,.14,0,.1v-.22S71.58,36.59,71.59,36.67Z"/><polygon class="cls-4" points="69.9 47.31 70.07 47.33 69.96 47.3 69.9 47.31"/><path class="cls-4" d="M70.22,47.23l0,.07.1-.06S70.25,47.25,70.22,47.23Z"/><path class="cls-1" d="M89.28,23.77v0h0c0-.1,0-.17,0-.11v-.26c0,.16.16,0,.23-.11,0,0,0,0-.06-.19,0,.07,0,.41-.09.26s0-.2,0-.32c0,.09-.07-.22-.12-.26V21.32s0,0,0,0v-.13c0-.13.06.25.08.08a2.14,2.14,0,0,1,0,.65l-.06.05a.43.43,0,0,0,0-.24c0,.1-.08.39,0,.51l0-.18a2.49,2.49,0,0,1,.08.64c.06-.1,0-.05.06-.21-.09.14,0-.59-.09-.36.09-.17,0-.29.11-.51,0,0,0,.08,0-.12,0,0,0,0,0,0h0a.29.29,0,0,1,0,.1,2.87,2.87,0,0,1-.07-.5c0-.12,0,0,0,0l0-.15s.07-.31.1,0V20.6a1.45,1.45,0,0,0,0-.46,1,1,0,0,0,0-.19l0-.38h0a6,6,0,0,1,0-1.2,3.34,3.34,0,0,1,0-.47l0,0a1.79,1.79,0,0,1,0-.32v-.17a.24.24,0,0,0,0-.11.86.86,0,0,0-.17-.6,1.73,1.73,0,0,0-.52-.5l0,0a1.3,1.3,0,0,0-.73-.17l0,0a7.08,7.08,0,0,1-.88,0h.17c-.4-.1-.84.08-1.2,0A.54.54,0,0,1,86,16h0l-.13,0,.11,0-.28,0,0,0h0c-.1,0-.08,0,0,.06l-.13,0c-.08-.08-.27,0-.38-.06s-.46,0-.56.1a.86.86,0,0,0-.32,0l0-.07-.25.09c-.16,0-.22-.06-.07-.11-.36.07-.29,0-.6.1v0c-.11,0-.29.06-.35,0-.25-.07-1.23,0-1.87-.08.13.12-.29,0-.32,0s-.12,0,0-.07a3.78,3.78,0,0,0-.71,0s.07,0,0,0-.1,0-.13,0,0,0,.1,0c-.34,0-.37.09-.39.17a.54.54,0,0,0-.38,0s-.15-.05,0-.06a2.38,2.38,0,0,0-.72,0,.61.61,0,0,0-.19,0h-.47a.24.24,0,0,1-.17,0,1,1,0,0,0-.27,0h0l-.16,0-.09,0-.1.06s-.09.05-.3.2l0,0c0,.05-.06.11-.16.22a.76.76,0,0,0-.22.4l.06-.09a.35.35,0,0,1,0,.13c0,.05,0,.1-.07.16a1,1,0,0,0-.1.29s0-.05,0-.09c-.07.38.06.05.07.34,0,.05-.08-.07-.09.12a5.71,5.71,0,0,1,0,.83c0-.06,0-.11.07,0s-.1.56,0,.74c0,0,0,0,0,0a4.55,4.55,0,0,0,.08.61c-.17.14.08,1-.07,1v.49l0,0a1.18,1.18,0,0,0,.07.53c0,.07,0,0,0,0a2.45,2.45,0,0,0,0,.87l0,0c0,.1-.07.66,0,1.1a.12.12,0,0,1,0-.05c.06.5-.14,1.2,0,1.38l0,.33c0-.43.08.06.11-.11,0,.16,0,.43-.06.22v0c-.1-.07,0,.53-.1.52,0,.42,0,.83,0,1.24l0,.61a1.42,1.42,0,0,0,.17.67.59.59,0,0,1,0-.13,1.17,1.17,0,0,0,.15.27c0,.07,0,.13-.11-.06l0,.1.09.08a.84.84,0,0,0,.14.08c.16.14.12.13,0,.1s-.17-.11-.12-.06a.58.58,0,0,0,.15.11l0,0,.16.06.1,0,.14.06.11.06s0,0,0,0,0,0,.1,0l.2,0h.18l-.14-.06c.16,0,.33,0,.17-.06a10.42,10.42,0,0,0,1.43.07,3.72,3.72,0,0,1,.69,0c-.07,0-.11-.08.12-.07-.08.14.41.06.6.16-.17-.07.64,0,.38-.11.19,0,0,.05.16.08.45-.05,1,0,1.54,0,0,0-.08-.05,0-.07l.29.09c.11,0,.1-.11.3,0,0,0-.07,0,0-.05,1.09.09,2.23-.07,3.33.1-.15,0,0,0,.06,0-.07,0,0-.05,0-.07l.46.06c.09-.06.5,0,.55-.06h-.15c.11,0,0-.09-.09-.14h.46a1.22,1.22,0,0,0,1.22-1.22Zm0-.38v-.31A1.07,1.07,0,0,1,89.28,23.39Zm0-.37h0v0Zm.23-2.61h0C89.53,20.27,89.52,20.32,89.51,20.41Zm-.11-1.14c0,.3-.05.13,0,.18,0,.57.15.48.09.95-.06.18-.11,0-.15.05a4,4,0,0,1,0-.54l0,.2a.89.89,0,0,1,0-.33.22.22,0,0,0,0,.09V18.71A1.9,1.9,0,0,1,89.4,19.27Zm-.12-1.79a1,1,0,0,0,0-.24.73.73,0,0,1,.07.19S89.29,17.45,89.28,17.48Zm-1-1.32a2.4,2.4,0,0,1,.24.12.81.81,0,0,1,.23.21.08.08,0,0,1,0,0,1,1,0,0,0-.25-.15l0-.07-.06.05a1.29,1.29,0,0,0-.28-.08C88.26,16.22,88.28,16.17,88.33,16.16Zm-1.5,0,.06,0,.27,0-.34.15h-.44A1.26,1.26,0,0,1,86.83,16.12Zm-2.34,0s0,0,0,0S84.44,16.14,84.49,16.14Zm-.65,0s0,.05,0,.09h-.2Zm-4.36,0s0,0,0,.06l.06,0c.05,0,.06,0,.06,0h-.16l0,0-.08,0h-.07l-.13-.05Zm-2,13.56-.06,0,.1,0S77.45,29.75,77.43,29.75Z"/><path class="cls-4" d="M88.13,29.83c-.09,0-.06,0-.07.05C88.21,29.87,88.12,29.82,88.13,29.83Z"/><path class="cls-4" d="M89.25,29.08a1.17,1.17,0,0,0,0-.2c0,.06,0,.12,0,.17Z"/><path class="cls-4" d="M89.43,28.21a2,2,0,0,1,0-.35.45.45,0,0,0,0,.27,1.45,1.45,0,0,1,0,.36l0,0s0,.07,0,.11v-.23C89.44,28.34,89.43,28.27,89.43,28.21Z"/><path class="cls-4" d="M89.58,27.25s0-.13,0,.15v-.15Z"/><path class="cls-4" d="M89.58,27.37c0,.12,0-.08,0,0Z"/><path class="cls-4" d="M89.57,26.81l0,.16s0-.17,0-.12C89.61,26.69,89.59,26.72,89.57,26.81Z"/><path class="cls-4" d="M89.51,26.66v.09S89.53,26.71,89.51,26.66Z"/><path class="cls-4" d="M89.53,26.83s0,0,0,.09l0-.17S89.49,26.77,89.53,26.83Z"/><path class="cls-4" d="M89.48,27.06c0,.31.07.26.06,0C89.52,27.11,89.51,27.22,89.48,27.06Z"/><path class="cls-4" d="M89.35,27.8l0,.12,0,.11C89.34,28,89.38,27.8,89.35,27.8Z"/><path class="cls-4" d="M89.6,25.83s0,.05-.06.06l0,.12C89.57,26,89.58,25.84,89.6,25.83Z"/><path class="cls-4" d="M89.54,25.89l0-.17C89.51,25.87,89.53,25.9,89.54,25.89Z"/><polygon class="cls-4" points="89.43 26.64 89.49 26.92 89.43 26.58 89.43 26.64"/><polygon class="cls-4" points="89.61 25.16 89.64 25.26 89.59 25.08 89.61 25.16"/><path class="cls-4" d="M89.61,24.38a1,1,0,0,1,0,.34c0,.07.05-.1.07,0A1.31,1.31,0,0,0,89.61,24.38Z"/><path class="cls-4" d="M89.61,24.38a.45.45,0,0,0,0-.16Z"/><path class="cls-4" d="M89.57,25.28l0,.07v.07A.21.21,0,0,0,89.57,25.28Z"/><path class="cls-4" d="M89.52,25.35h0v0Z"/><path class="cls-4" d="M89.52,25.44v0Z"/><path class="cls-4" d="M89.47,26.18c0-.1,0-.32-.08-.11S89.44,26,89.47,26.18Z"/><path class="cls-4" d="M89.5,25.72l0-.2v.19S89.49,25.67,89.5,25.72Z"/><polygon class="cls-4" points="89.46 25.43 89.47 25.52 89.47 25.45 89.46 25.43"/><path class="cls-4" d="M89.54,24.54a1.14,1.14,0,0,1,0-.27c0,.11,0,.22,0,.32S89.54,24.66,89.54,24.54Z"/><path class="cls-4" d="M89.53,24.94v0S89.52,24.94,89.53,24.94Z"/><path class="cls-4" d="M89.52,23.3h0Z"/><path class="cls-4" d="M89.5,24.61a.5.5,0,0,0,0,.18c0-.06,0-.13,0-.2S89.49,24.59,89.5,24.61Z"/><path class="cls-4" d="M89.56,24a.59.59,0,0,0,0,.14A.42.42,0,0,0,89.56,24Z"/><path class="cls-4" d="M89.54,24.89h0S89.54,24.88,89.54,24.89Z"/><path class="cls-4" d="M89.54,24.89l0-.1a.59.59,0,0,0,0,.13A0,0,0,0,1,89.54,24.89Z"/><path class="cls-4" d="M89.51,23.66v.08a1.47,1.47,0,0,1,0-.26c0-.13,0-.15,0-.16v.34Z"/><path class="cls-4" d="M89.51,24.08c0-.06-.06-.24-.11-.13s0,.15.06.29c0-.36,0,.1.05-.16,0,.07,0,.13,0,.19a1.1,1.1,0,0,1,0-.18h0c0-.11,0,0,0,0h0l0-.36C89.5,23.81,89.51,23.91,89.51,24.08Z"/><path class="cls-4" d="M89.29,25.88h0S89.29,25.83,89.29,25.88Z"/><path class="cls-4" d="M89.41,25.56h0Z"/><path class="cls-4" d="M89.35,25.88v0a2.21,2.21,0,0,1,.06-.3.52.52,0,0,0-.09.17.7.7,0,0,1,0,.13c0,.08,0,0,0,0S89.33,26,89.35,25.88Z"/><path class="cls-4" d="M89.4,24.89l0-.3,0,.16h0C89.36,24.91,89.39,24.87,89.4,24.89Z"/><polygon class="cls-4" points="89.54 23.26 89.58 23.3 89.52 23.13 89.54 23.26"/><polygon class="cls-4" points="89.53 22.88 89.57 22.89 89.55 22.79 89.53 22.88"/><path class="cls-4" d="M85.83,16c-.13,0-.27-.09-.25-.05l0,.05A1.46,1.46,0,0,1,85.83,16Z"/><path class="cls-4" d="M89.52,18.9c0-.11,0-.2,0-.27C89.52,18.76,89.48,18.87,89.52,18.9Z"/><path class="cls-4" d="M76.28,19.59c0,.05,0,.07,0,.07S76.3,19.57,76.28,19.59Z"/><path class="cls-4" d="M89.54,18.63a.69.69,0,0,0,0-.32.13.13,0,0,1,0,.06A1.09,1.09,0,0,1,89.54,18.63Z"/><path class="cls-4" d="M87,29.78h0Z"/><path class="cls-4" d="M89.55,21.31c0,.09,0,0,0,0Z"/><path class="cls-4" d="M89.36,21.68l0,0S89.37,21.68,89.36,21.68Z"/><path class="cls-4" d="M89.53,21.44s0-.07,0-.11A.54.54,0,0,0,89.53,21.44Z"/><path class="cls-4" d="M89.55,21.42v.07S89.56,21.49,89.55,21.42Z"/><path class="cls-4" d="M89.55,21.31v0Z"/><path class="cls-4" d="M89.57,22.15v0Z"/><path class="cls-4" d="M89.56,22c0,.08,0,.11,0,.16s0,0,0,0Z"/><path class="cls-4" d="M89.41,22.33s0,.13,0,.25v0C89.45,22.6,89.43,22.46,89.41,22.33Z"/><path class="cls-4" d="M89.39,22.61a.49.49,0,0,1,0,.12S89.4,22.68,89.39,22.61Z"/><path class="cls-4" d="M89.52,21c0,.06,0,0,0,.07S89.49,20.72,89.52,21Z"/><polygon class="cls-4" points="89.28 22.43 89.33 22.39 89.29 22.32 89.28 22.43"/><path class="cls-4" d="M89.31,21.45v.2s0,0,0,.05S89.33,21.44,89.31,21.45Z"/><path class="cls-4" d="M89.33,21.86s0-.11,0-.16A.76.76,0,0,0,89.33,21.86Z"/><path class="cls-4" d="M89.29,19.2c0,.05,0,.13,0,.1v-.22S89.28,19.12,89.29,19.2Z"/><polygon class="cls-4" points="87.6 29.84 87.77 29.86 87.66 29.82 87.6 29.84"/><path class="cls-4" d="M87.92,29.76l0,.07.1-.06S88,29.78,87.92,29.76Z"/><path class="cls-2" d="M143.9,49.61a4.28,4.28,0,0,0-1.62-.39,50.94,50.94,0,0,0-5.1,0l-5.29.08c-1.68.1-18.72.21-20.4.27a1.7,1.7,0,0,1-1.57-.43,1.75,1.75,0,0,1-.19-1.5,21.67,21.67,0,0,0,.09-4.11c-.06-1.46-.08-2.92,0-4.38s.14-2.87.23-4.3a3.35,3.35,0,0,0-.28-1.77,1.92,1.92,0,0,0-1.53-.66c-.82,0-1.65,0-2.47-.07s-1,.32-1,.88a15.08,15.08,0,0,0-.05,2.12c0,.66-.08,1.33-.14,2q-.15,4.31,0,8.61c-.07,1.39-.11,2.76-.15,4.11.35,1,1.27,1.52,2.77,1.47,2.73,0,20.83-.19,23.59-.42,1.37-.11,2.75-.23,4.15-.39,1.33,0,2.68.12,4.05.19.85,0,1.71-.07,2.57-.07a5.62,5.62,0,0,0,2.24-.08C144.28,50.41,144.34,50,143.9,49.61Z"/><path class="cls-5" d="M102.75,16.32a23.32,23.32,0,0,1,3.18,2,6,6,0,0,0,1.22,1,.91.91,0,0,0,.72,0,1.11,1.11,0,0,1,.58-.15,18,18,0,0,0,1.82-1.1,1.86,1.86,0,0,0,1.16-.95,2.36,2.36,0,0,0-1.64-1.59,19.57,19.57,0,0,1-3.05-2,6,6,0,0,0-1.4-.73,3,3,0,0,0-1.66.43,6.34,6.34,0,0,0-2.14,1.32C101.28,15.41,101.68,16,102.75,16.32Z"/><path class="cls-5" d="M104,25.6a23.32,23.32,0,0,1,3.18,2,6.31,6.31,0,0,0,1.23.95.88.88,0,0,0,.71,0,1.14,1.14,0,0,1,.58-.15,17.06,17.06,0,0,0,1.83-1.1,1.86,1.86,0,0,0,1.15-.94,2.34,2.34,0,0,0-1.64-1.6,19.67,19.67,0,0,1-3-2,6.33,6.33,0,0,0-1.41-.74,2.92,2.92,0,0,0-1.65.43,6.55,6.55,0,0,0-2.15,1.32C102.48,24.7,102.88,25.32,104,25.6Z"/><path class="cls-5" d="M115.28,38.35c0,1.7-.07,3.38-.15,5a21.85,21.85,0,0,0-.16,2.42,1,1,0,0,0,.74,1.1l2.33-.4a6,6,0,0,1,1.06-.21.77.77,0,0,0,.72-.37,12.69,12.69,0,0,0,.24-2.33,1.82,1.82,0,0,0,.15-1,2,2,0,0,1,.26.31l.31.21a.73.73,0,0,0,.89,0,4.49,4.49,0,0,1,1.1-.07,6,6,0,0,0,1.27-.16,9.52,9.52,0,0,0,1.1-.29,6.9,6.9,0,0,1,1.19-.3,17.48,17.48,0,0,0,2.32-.58c.4-.07.81-.15,1.23-.25a5.31,5.31,0,0,1,1-.2,2.33,2.33,0,0,1,.71,1.41,3.66,3.66,0,0,0,3.36-.07c.32.38.27.77-.14,1.17a2.39,2.39,0,0,1-1.45,0c-.68.05-1,.38-1,1a1.74,1.74,0,0,0,1.55.77c.63.26,1.24.5,1.84.72a4.71,4.71,0,0,0,2-.13,5.82,5.82,0,0,0,1.86-.35,1.49,1.49,0,0,0,.52-1.36c0-.65,0-1.32,0-2a21.27,21.27,0,0,1,.08-2.38c0-1.67,0-3.34,0-5a3.12,3.12,0,0,0-1.1-3.52,10.38,10.38,0,0,0-2.16,0,15.57,15.57,0,0,0-2.21.18c-.43,0-.84,0-1.23,0l-.81.19c-.62,0-1.23-.06-1.83-.05s-7.31,0-8-.14-1.58,0-2.38,0a13,13,0,0,0-2.17-.22,5.32,5.32,0,0,0-2.16.31,1.48,1.48,0,0,0-.73,1.45C115.42,35,115.35,36.68,115.28,38.35Zm14.23,0c.05-.63.1-1.26.18-1.89a4.39,4.39,0,0,1,.29-2.11,3.67,3.67,0,0,1,3.48-.48,4.31,4.31,0,0,1,1.36.2,1.56,1.56,0,0,1,.37,1.56c0,.86.07,1.68.14,2.46s-.09,1.61-.08,2.42a.6.6,0,0,1-.39-.62c-.16-.71-.34-1.44-.56-2.18s-.28-1.34-.46-2a1.12,1.12,0,0,0-1.37-.42,6.29,6.29,0,0,0-1.7.26,2.12,2.12,0,0,0-.19,2.82c.18.57,0,.91-.49,1A.91.91,0,0,1,129.51,38.32Zm-9-3.44a2.42,2.42,0,0,1,.19-1,1.29,1.29,0,0,1,1.27-.16,15.77,15.77,0,0,0,1.58.32,2.6,2.6,0,0,1,1.06.2,1.29,1.29,0,0,1,.2,1.12c0,.59,0,1.16-.09,1.7s0,1.16,0,1.7,0,.9,0,1.35a.84.84,0,0,1-.84.64,5,5,0,0,0-1.35.39,7.71,7.71,0,0,1-1.48.48.7.7,0,0,0-.75.5h-.09Q120.34,38.52,120.52,34.88Z"/><path class="cls-2" d="M130,27a3.62,3.62,0,0,1,1.26-.25l2.22,0c.73,0,1.48-.12,2.25-.22a1.72,1.72,0,0,0,.85-.23c.16-.18.34-.35.53-.53a1.47,1.47,0,0,0,.54-1.61,18,18,0,0,1,0-2.2q0-2.43.06-4.89c-.07-.77-.12-1.56-.13-2.37.07-.64.13-1.31.2-2a1.37,1.37,0,0,0-.85-1.45c-.58-.13-1.15-.23-1.73-.31a14.8,14.8,0,0,0-2.21.05,17.14,17.14,0,0,1-2.14-.17,19.61,19.61,0,0,0-2.3,0c-.71,0-1.4,0-2.09-.09s-1.54,0-2.25.09-1.36-.16-2-.26a18.31,18.31,0,0,1-1.84.13,7.7,7.7,0,0,0-1.88.17,1.59,1.59,0,0,0-1.3.85,3.32,3.32,0,0,0,0,1.77c.09,1.55.14,3.12.14,4.7s.11,3.21.15,4.8c0,1.12-.11,2.23-.22,3.33a1.35,1.35,0,0,0,.53,1.71,4,4,0,0,0,.86-.1,4.08,4.08,0,0,0,.94-.15,1.59,1.59,0,0,1,.85-.23,4.4,4.4,0,0,0,1,0,7.93,7.93,0,0,0,2.12-.44,1,1,0,0,1,1.28.15A40.94,40.94,0,0,0,130,27Zm.17-11.07a6.11,6.11,0,0,0,0-1.21,6.18,6.18,0,0,1,0-1.29c0-.18.11-.39.19-.65a.32.32,0,0,0,.33.07s.05,0,.16,0l.66,0a2,2,0,0,1,1.15.24,1.48,1.48,0,0,1,.15,1.12,3.33,3.33,0,0,0,.07,1.38,4.44,4.44,0,0,1,0,2.72,1,1,0,0,1-.95,0,2.91,2.91,0,0,0-1,.11.76.76,0,0,1-.75-.33,1.38,1.38,0,0,1,0-.87A5.43,5.43,0,0,1,130.12,15.92Zm0,4.15a10.2,10.2,0,0,0,2.67.2.68.68,0,0,1,.3.73c-.07.49-.13,1-.18,1.43l0,1.77a.79.79,0,0,1-.43.79,1.54,1.54,0,0,1-1.07.06,2.85,2.85,0,0,0-1.39.21c-.05.06-.09.07-.12,0C130,23.57,130.07,21.83,130.09,20.07Zm-5,2.61c-.06.93-.1,1.83-.11,2.73l-2.22-.22c-.54.07-.78-.17-.71-.71a28.16,28.16,0,0,0,.11-4.59,1.09,1.09,0,0,0,.86-.14c.38,0,.78-.06,1.18-.07a.69.69,0,0,1,1,.54C125.23,21.05,125.2,21.88,125.14,22.68Zm.11-8.12c0,.37,0,.73,0,1.08,0,.81,0,1.6-.08,2.38a1,1,0,0,1-.86-.2,2.56,2.56,0,0,0-1.15-.15.94.94,0,0,1-1.09-.84,14.5,14.5,0,0,1,0-2.38,1.93,1.93,0,0,1,.26-1.6,3.52,3.52,0,0,1,1.88-.21.82.82,0,0,1,1.08.62C125.28,13.69,125.27,14.13,125.25,14.56Z"/><path class="cls-2" d="M18.65,30A2.53,2.53,0,0,0,16.87,28a5.82,5.82,0,0,1-1.55-1.27c-.27-.18-.52-.36-.78-.52L14,25.69a1.31,1.31,0,0,1,1.22-.2l1.68-.08c.9.19,1.39-.08,1.48-.79a2.11,2.11,0,0,0-2-.91,8.49,8.49,0,0,0-1.68-.08,2.33,2.33,0,0,1-1.26,0,1,1,0,0,1-.35-1.07c0-.51,0-1,0-1.55a29.48,29.48,0,0,0,.3-3.53c0-1.22.1-2.43.22-3.65a.87.87,0,0,0-.35-.95.62.62,0,0,1-.69-.36,3.05,3.05,0,0,1-1.82.16l-.91.16L9,12.88a.78.78,0,0,0-.47,1c.05.61.1,1.2.13,1.78a36.39,36.39,0,0,1-.22,3.93,14.06,14.06,0,0,0,0,1.94A3.84,3.84,0,0,1,8.34,23a1.35,1.35,0,0,1-1.12.44c-.58,0-1.14-.12-1.69-.2a6.65,6.65,0,0,1-1.48.36,4.6,4.6,0,0,0-1.64.11c-.58.27-.74.65-.48,1.15a1.38,1.38,0,0,0,.7.32,1.51,1.51,0,0,0,.64.2,9.23,9.23,0,0,0,1.13-.08,2,2,0,0,0,.87,0,1.59,1.59,0,0,1,.78,0,1.85,1.85,0,0,0,.69.2v-.12a1.65,1.65,0,0,1,.43.08,64.38,64.38,0,0,1-3.85,7.3,14.22,14.22,0,0,0-.91,1.78A2.16,2.16,0,0,0,1.76,36,1,1,0,0,0,3,36.56a2,2,0,0,1,.82-.16.51.51,0,0,0,.6,0,1.39,1.39,0,0,0,1.87-.32,4.83,4.83,0,0,0,1.08-2.14A4.14,4.14,0,0,1,8,32.75q.3-.41.39,0a22.45,22.45,0,0,1-.08,2.73c0,2.31,0,4.58,0,6.83.06,1.13.09,2.27.09,3.41a9.69,9.69,0,0,0,0,1.62.89.89,0,0,0,.26.92.18.18,0,0,0,.22-.16,2.24,2.24,0,0,0,1.94-.28,2.37,2.37,0,0,0,2-.79,2.71,2.71,0,0,0,.13-1.31A9.39,9.39,0,0,1,13,44.13q0-1.47-.09-3-.13-3.13,0-6.35a27.77,27.77,0,0,0,.08-3.05,5.65,5.65,0,0,1,.18-2.42,4,4,0,0,0,1.3.87,7.16,7.16,0,0,0,2.12.16A1.7,1.7,0,0,0,18.65,30Z"/><path class="cls-5" d="M40.83,49.53a3.67,3.67,0,0,0-1.48-.4,39.68,39.68,0,0,0-4.63,0l-4.81.08q-2.3.16-4.59.24A1.43,1.43,0,0,1,23.89,49a2,2,0,0,1-.17-1.54,26.17,26.17,0,0,0,.08-4.25c-.05-1.5-.07-3,0-4.52s.13-3,.22-4.44a3.89,3.89,0,0,0-.26-1.82,1.67,1.67,0,0,0-1.39-.68c-.75,0-1.5,0-2.25-.08s-.95.33-.95.91a17.88,17.88,0,0,0-.05,2.19c0,.68-.07,1.37-.13,2.06q-.12,4.44,0,8.88c-.05,1.43-.1,2.84-.13,4.25a2.2,2.2,0,0,0,2.52,1.5c2.48,0,5-.16,7.49-.39,1.24-.11,2.5-.24,3.77-.4,1.21,0,2.44.12,3.68.2.78-.06,1.56-.08,2.34-.08a4.48,4.48,0,0,0,2-.08C41.17,50.36,41.23,50,40.83,49.53Z"/><path class="cls-5" d="M41.36,13.18h-.52c-.09,0-.19-.1-.18-.15a.92.92,0,0,1-.46,0,2.58,2.58,0,0,0-.29,0,1.37,1.37,0,0,0-.28,0c-.07,0,.08,0,0-.06a.43.43,0,0,1-.17,0,.9.9,0,0,1-.24-.07h0a1.63,1.63,0,0,1-.62-.31,2.38,2.38,0,0,1-.48-.54l0,.06a.4.4,0,0,1-.08-.2c-.08-.05,0,0,0,.12s.11.16,0,.13a.49.49,0,0,0-.08-.22L38,11.79a.94.94,0,0,1-.06-.15c-.08-.21-.1-.43,0-.49s-.07.06-.08-.13l0-.06-.05-.05c0-.15.05-.22.09-.23a.33.33,0,0,0,0,.14,5.67,5.67,0,0,0,0-.59l0,.21c0-.15,0-.31,0-.47v-.5a1.82,1.82,0,0,0-.35-1v0l-.26-.36L37.11,8A.38.38,0,0,0,37,7.93l-.14-.12h0l-.17-.09-.2-.11c.15,0-.2-.18,0-.12a1.11,1.11,0,0,0-.39-.12h-.28l-.06-.06-.16,0a2.31,2.31,0,0,1-.27,0c.24,0-.17-.08.09-.12a1.12,1.12,0,0,0-.4,0h-.16l-.15,0-.24.06a.79.79,0,0,1-.22,0c-.11.1,0,.07.16,0s.29-.07.22,0,0,0-.07.08l-.15,0-.14,0a2.33,2.33,0,0,1-.3,0,1.06,1.06,0,0,0-.48.2l.08-.06-.12.07-.1.09a.86.86,0,0,1-.22.2c0,.14-.19.21-.12.29A3.75,3.75,0,0,1,33.3,8a1.3,1.3,0,0,0-.1.15l-.09.17A1.07,1.07,0,0,1,33,8.5c0,.06-.08.14-.13.21a.79.79,0,0,1,0-.22c-.08.09-.09.2-.15.29s0,0,0-.1a.67.67,0,0,1,.08-.18A2.39,2.39,0,0,1,33,8.29l.11-.2a.65.65,0,0,0-.17.22c0,.09-.07.14-.08,0a.51.51,0,0,1,0,.17l-.08.16a1,1,0,0,0-.08.18.85.85,0,0,0,0,.23l0,0a2.37,2.37,0,0,1,0,.24l-.05-.18c0,.26-.11.5-.08.71,0-.23,0-.26,0-.25s.05.05.08-.05c.07.55-.16.33-.14.91,0-.1,0-.26.07-.15a2.39,2.39,0,0,1-.07.35c0,.41.06-.07.1.11s0,.21,0,.37H32.5c0,.11,0,.16,0,.2a.24.24,0,0,0,0,.07s.06,0,0,.23c0-.06,0-.12,0-.18a1.42,1.42,0,0,1,0,.2l0-.06a.63.63,0,0,1-.07.23.93.93,0,0,1,0,.1l-.09.1c.07,0,.09.08,0,.24s0-.09-.18.11a.19.19,0,0,1,0-.1.1.1,0,0,1,0,0l.07-.05s0-.06,0-.08-.23.24-.31.3.06-.05.09-.05l-.12.15-.14.14c-.07,0,0,0,0-.06a.93.93,0,0,1-.2.15c0-.05,0-.09.1-.19l-.14.11-.16.1s-.2,0-.16,0a1.89,1.89,0,0,0-.35.1l-.2,0h-.24l-.12,0a4.18,4.18,0,0,0-.94,0L29,12.79c-.17,0-.08,0,0,.07s.08.05-.19.08-.15-.06-.28-.06a5.59,5.59,0,0,1-.8.33,2.39,2.39,0,0,1,.28-.13l-.27.06a1.68,1.68,0,0,1,.32-.2c.06,0,.05,0-.09,0,0,0-.05.09-.13.14l-.32.18c-.22.14-.41.32-.36.38l-.14.1s0-.05.06-.08a.32.32,0,0,0-.18.23.39.39,0,0,1,0,.14.8.8,0,0,1-.11.19c-.08.12-.15.2-.13.1a1.67,1.67,0,0,0-.08.3c0,.06,0,.06,0,0a.84.84,0,0,0-.05.17,2.23,2.23,0,0,0,0,.23h0c0,.07,0,.22.07.29s0-.05,0,0a1.19,1.19,0,0,0,.05.26c0,.05-.05,0-.07,0a.65.65,0,0,1,0-.25.25.25,0,0,0-.06.27c0,.05,0,.1,0,.17s0,.18,0,.31l0-.12,0-.12a.32.32,0,0,0,0,.14.86.86,0,0,0,0,.15c0,.05,0,.11,0,.17l.06.21a2.11,2.11,0,0,1,0-.3c0-.11,0-.17.1,0a.43.43,0,0,0,0,.14.48.48,0,0,0,.11.17c-.06,0,0,.16.14.32l-.08,0c.15.16.18.12.28.19a.73.73,0,0,1,.14.2.3.3,0,0,1,0,.12c.15.13.12.07.09,0s0-.1.14,0a1.69,1.69,0,0,0,.86.36c.21.09-.06,0,0,.08h.22s0,0,0,0c.17,0,0-.07.29-.05,0,0,.17,0,.32,0a1,1,0,0,0,.49,0c.07,0,0,0,0,.07a3.86,3.86,0,0,0,.69-.13,2.14,2.14,0,0,1,.27.06c-.09,0-.08-.07,0-.09a1.1,1.1,0,0,1,.31-.07l0,0,.08,0h0l0,0,.06,0,.18,0s-.06,0-.12.05l-.12-.07c-.1,0-.19.08-.17.12h.11s0,0,0,0,.05,0,.11,0l.05.1,0,0a1.21,1.21,0,0,1,.2.09l.19.1h.12l.12,0a1.17,1.17,0,0,1,.25.07,1.31,1.31,0,0,1,.54.36c-.14-.06-.11,0-.18.08a.18.18,0,0,0,0-.11l-.12-.1-.15-.09-.15-.11c.1.08,0,.09,0,.09l.2.11.18.13c-.06,0,0,.1.07.2,0-.07.09,0,.17.08s.13.23.18.31,0,0-.07,0a.15.15,0,0,1,0-.06l-.07-.12a.41.41,0,0,0,.14.24.28.28,0,0,1,.09.1.24.24,0,0,1,0,.15.16.16,0,0,0,0-.1.61.61,0,0,1,.06.24c0,.09,0,.14,0,.11v-.05c0,.16,0,.46,0,.71a.91.91,0,0,0,.1.48l-.16-.07.19.33c0,.05.05.09.07.13a1.49,1.49,0,0,0,0,.21.16.16,0,0,1-.09,0c-.07,0-.15,0-.18-.16a.86.86,0,0,0,0,.17,1.13,1.13,0,0,0,.07.26c0-.08.1-.19.13-.1a.77.77,0,0,0,0,.22s0,.11,0,.27c0-.1.16,0,.23.09s-.13.07-.17,0a2.24,2.24,0,0,0,.34.27c-.08-.07-.12,0-.09.14s.05.05.12.13a2,2,0,0,0,.22.21l-.11-.15a.66.66,0,0,0,.42.23l.19,0,.25.09c-.06,0-.21.1,0,.21l.38-.08h0a2.63,2.63,0,0,0,.49.07l-.09,0-.31.07-.29,0c.17.08,0,.06.31.12,0,0,0,0-.06,0l-.19,0,.33.08.17,0h.17s.11-.05.24-.08.24-.06.22-.09l-.34.07-.36,0s0,0,.07-.06a.58.58,0,0,1,.19-.07,3.85,3.85,0,0,1,.57-.11c.06,0,0,0,0,.08s-.06.08-.06.1a3.39,3.39,0,0,1,.45-.15l-.17.1a.74.74,0,0,0,.31-.14,1.08,1.08,0,0,1,.34-.16c.09,0,.32-.09.31-.13a.37.37,0,0,1-.31-.15l.25-.19v0l.05,0,0,0a2.28,2.28,0,0,0,.22-.22s0,.05,0,.11,0,.15.06.12a.3.3,0,0,1,0-.14c.08-.07,0,.08.16-.11,0,0,0-.13.07-.18s0,0,0,0l-.1.1.11-.19.06-.09a.81.81,0,0,0,.06-.13s-.06,0-.08-.14a.31.31,0,0,1,0-.1,2,2,0,0,0,0-.24h0c0-.2,0-.36.05-.51s0-.29,0-.48.05-.22.09-.14a.47.47,0,0,1-.05-.22c.08-.22,0,.26.1.09,0,0-.07-.3-.1-.46-.08,0,0,.38,0,.54q-.06,0-.12-.09v-.41a2,2,0,0,1,.16-.77,3,3,0,0,1,.28-.45,1.86,1.86,0,0,1,.65-.55l.12-.12A2.57,2.57,0,0,1,40,17.55h.43a0,0,0,0,0,0,0l.21,0h0s-.08,0,0,0a.19.19,0,0,1,.09,0h.78a2.26,2.26,0,0,0,2.26-2.17h0A2.29,2.29,0,0,0,41.36,13.18Zm-15,2.66c.09.06.07.13.08.25C26.41,16,26.33,15.9,26.36,15.84ZM31,17.74a.6.6,0,0,1,.19.08A.48.48,0,0,1,31,17.74Z"/><path class="cls-6" d="M25.88,14.29l0-.1Z"/><path class="cls-6" d="M25.64,15l0,0S25.64,15,25.64,15Z"/><path class="cls-6" d="M29.79,17.75l.17,0Z"/><path class="cls-6" d="M29.56,12.84l.11-.05C29.49,12.79,29.57,12.82,29.56,12.84Z"/><path class="cls-6" d="M37.89,10.82v0S37.89,10.84,37.89,10.82Z"/><path class="cls-6" d="M37.55,21.41Z"/><path class="cls-6" d="M32.53,21.19v0Z"/><path class="cls-6" d="M32.49,20.88a.47.47,0,0,1,0,.16.75.75,0,0,1,0,.15l.16-.11Z"/><path class="cls-6" d="M25.75,14.62s0,0,0-.06S25.75,14.6,25.75,14.62Z"/><path class="cls-6" d="M32.42,10.48v0Z"/><path class="cls-6" d="M30,17.77l0,0S29.92,17.75,30,17.77Z"/><path class="cls-6" d="M29.54,12.85h0Z"/><path class="cls-6" d="M37.27,22.6a.39.39,0,0,1-.11.08S37.2,22.68,37.27,22.6Z"/><path class="cls-6" d="M39.44,17.6l.22,0h-.07Z"/><path class="cls-6" d="M37.78,19l.08,0a.41.41,0,0,1,0-.11A.32.32,0,0,1,37.78,19Z"/><path class="cls-6" d="M37.71,19.52s0,.3.06,0C37.74,19.54,37.77,19.33,37.71,19.52Z"/><path class="cls-6" d="M33.88,23.25c-.05,0-.1-.07-.06-.06-.18-.06-.25-.14-.23,0s.16.09.18.09,0,0,.17.06S33.93,23.29,33.88,23.25Z"/><path class="cls-6" d="M33.82,23.19l.1,0Z"/><path class="cls-6" d="M25.83,16.66h0a.49.49,0,0,0-.06-.17Z"/><polygon class="cls-6" points="25.94 14.04 25.91 14.07 26.02 14.04 25.94 14.04"/><path class="cls-6" d="M27.88,12.79c.06,0,.09,0,.07,0l-.25.05Z"/><path class="cls-6" d="M27.7,12.8l-.08,0Z"/><path class="cls-2" d="M43.44,44.26a8.41,8.41,0,0,1-.1-1.35,113.38,113.38,0,0,1-.49-12.38,10.1,10.1,0,0,1,.25-2.26,1.9,1.9,0,0,0-.1-1.46,4.4,4.4,0,0,0-1.77-.92A8.21,8.21,0,0,0,39,25.73a1.3,1.3,0,0,1-1.12-.34H32a1.45,1.45,0,0,1-.72,0H31l-.86,0a6.87,6.87,0,0,1-1.23.2,1.88,1.88,0,0,0-.93.47,1,1,0,0,1-.69.36.62.62,0,0,0-.69.16.78.78,0,0,0-.05.71c-.06,1.4-.06,2.79,0,4.16a17.77,17.77,0,0,1,0,4.25c0,1.51.12,3,.25,4.4,0,1.53-.08,3-.15,4.48a1.28,1.28,0,0,0,.59,1.63,9.26,9.26,0,0,0,2.11.08c.89.13,1.77.22,2.65.28a10.56,10.56,0,0,1,2.31.08,8,8,0,0,1,1.63-.16h1.76c.59,0,1.2,0,1.82,0a3.64,3.64,0,0,0,1.67-.08,4.8,4.8,0,0,1,1.33-.32,1.26,1.26,0,0,0,.83-.56A1.77,1.77,0,0,0,43.44,44.26ZM32,27.84a2.26,2.26,0,0,1,2-.44l1.67.08c.46,0,.92,0,1.38,0a1.42,1.42,0,0,1,.73,1.66c0,.88,0,1.72-.05,2.54l-3.24-.08H32.68a.68.68,0,0,1-.78-.23,3.16,3.16,0,0,1,.05-2A3,3,0,0,1,32,27.84Zm-.3,7.21a3.28,3.28,0,0,1,.1-1.58A2.85,2.85,0,0,1,34,33.15a19.46,19.46,0,0,0,2.16,0,2.89,2.89,0,0,1,1.43.12A2.31,2.31,0,0,1,37.79,35a6.08,6.08,0,0,1-.1,2.66,12.71,12.71,0,0,1-2.31,0,17.05,17.05,0,0,0-1.86-.28,1.51,1.51,0,0,1-1.82-.47A11,11,0,0,1,31.65,35.05Zm4.42,9.84a12.16,12.16,0,0,1-1.91,0,2.06,2.06,0,0,1-2.36-.63c0-1,0-2.08.1-3.14a5.11,5.11,0,0,1-.1-1.74,2.21,2.21,0,0,1,2.45-.4c.59.08,1.2.15,1.82.2a5.91,5.91,0,0,1,1.33,0,.81.81,0,0,1,.64,1c0,.53,0,1,.05,1.55.06,1.06.09,2.11.09,3.17A6.79,6.79,0,0,1,36.07,44.89Z"/><path class="cls-6" d="M32.66,81.68l.17,0Z"/><path class="cls-6" d="M32.85,81.7a0,0,0,0,1,0,0S32.8,81.68,32.85,81.7Z"/></g></svg>