<svg xmlns="http://www.w3.org/2000/svg" viewBox="0 0 48.44 42.79"><defs>.cls-1{fill:#fac959;}</defs><g id="圖層_9" data-name="圖層 9"><path class="cls-1" d="M29,32.76c-3.85,0-7.71,0-11.56,0a6.31,6.31,0,0,1-6.62-5.35c-1.25-6.6-2.66-13.16-4-19.74C6.55,6.45,6.18,6.13,5,6.13c-1,0-1.93,0-2.9,0A2,2,0,0,1,0,4.3,2,2,0,0,1,1.92,2.4c1.52-.06,3.05-.07,4.56,0A4.19,4.19,0,0,1,9.66,4.14a1.73,1.73,0,0,0,1.57.67H44.09a4.53,4.53,0,0,1,3.4,1.05,2.65,2.65,0,0,1,.86,2.69c-.57,2.18-1.18,4.35-1.79,6.52C46,17,45.5,18.83,44.91,20.68a6,6,0,0,1-6,4.46c-3.15.06-6.29,0-9.43,0q-7.08,0-14.15,0c-.57,0-.82.14-.66.74.12.44.19.89.31,1.33a1.85,1.85,0,0,0,2.12,1.63H40.37A7.66,7.66,0,0,1,41.8,29a1.94,1.94,0,0,1,1.64,1.91,2.12,2.12,0,0,1-1.82,1.86,7.61,7.61,0,0,1-1.07,0Z"/><path class="cls-1" d="M15,42.79A3.92,3.92,0,0,1,10.89,39,4,4,0,0,1,15,35.26a4,4,0,0,1,4,3.74A3.94,3.94,0,0,1,15,42.79Z"/><path class="cls-1" d="M39.35,42.79A3.89,3.89,0,0,1,35.3,39a4,4,0,0,1,4.21-3.71,3.78,3.78,0,1,1-.16,7.55Z"/></g></svg>