<svg xmlns="http://www.w3.org/2000/svg" viewBox="0 0 39.25 45"><defs><style>.cls-1{fill:#fac959;}</style></defs><g id="圖層_9" data-name="圖層 9"><path class="cls-1" d="M19.5,45H6.06C5,45,3.88,45,2.8,44.94A2.79,2.79,0,0,1,0,42a15.79,15.79,0,0,1,2.82-8.63,15.24,15.24,0,0,1,10.86-6.6,45,45,0,0,1,4.65-.13c1.92,0,3.84,0,5.76,0A15,15,0,0,1,34,30.51a15.08,15.08,0,0,1,4.86,7.92,18.19,18.19,0,0,1,.43,3.45,2.69,2.69,0,0,1-3,3.06c-3.59,0-7.18,0-10.77.05Z"/><path class="cls-1" d="M30.87,11.26A11.22,11.22,0,1,1,19.74,0,11.24,11.24,0,0,1,30.87,11.26Z"/></g></svg>