<svg xmlns="http://www.w3.org/2000/svg" viewBox="0 0 39.66 39.66"><defs><style>.cls-1{fill:#e6e6e6;}</style></defs><g id="圖層_9" data-name="圖層 9"><path class="cls-1" d="M19.83,0A19.83,19.83,0,1,0,39.66,19.83,19.83,19.83,0,0,0,19.83,0Zm5.54,19.84H21.75v13H16.36V19.89H13.82v-4.6h2.52c0-1-.06-1.88,0-2.79A10.38,10.38,0,0,1,16.78,10a4.29,4.29,0,0,1,3.34-2.94C22,6.67,23.85,7,25.75,6.89v4.46H24.09c-.43,0-.85,0-1.27,0a1,1,0,0,0-1.07,1c0,.94,0,1.89,0,2.89h4.1C25.68,16.83,25.53,18.32,25.37,19.84Z"/></g></svg>