<svg xmlns="http://www.w3.org/2000/svg" viewBox="0 0 39.66 39.66"><defs><style>.cls-1{fill:#e6e6e6;}</style></defs><g id="圖層_9" data-name="圖層 9"><path class="cls-1" d="M20.61,21.78a1.07,1.07,0,0,1-1.56,0l-8.75-7L9.18,14V26c0,.67.09.76.75.76h19.8c.65,0,.75-.09.75-.76v-12l-.55.43Z"/><path class="cls-1" d="M19.57,19.6c.23.18.36.13.55,0l6.41-5.09,1.95-1.55H11.22l.2.19Q15.5,16.35,19.57,19.6Z"/><path class="cls-1" d="M19.83,0A19.83,19.83,0,1,0,39.66,19.83,19.83,19.83,0,0,0,19.83,0Zm9.94,28.78c-3.32-.05-6.64,0-10,0s-6.61,0-9.91,0A2.63,2.63,0,0,1,7.13,26c0-4.14,0-8.27,0-12.41a2.48,2.48,0,0,1,2.69-2.71h20a2.48,2.48,0,0,1,2.7,2.7c0,4.15,0,8.31,0,12.46A2.61,2.61,0,0,1,29.77,28.78Z"/></g></svg>