<svg xmlns="http://www.w3.org/2000/svg" viewBox="0 0 39.66 39.66"><defs><style>.cls-1{fill:#e6e6e6;}</style></defs><g id="圖層_9" data-name="圖層 9"><path class="cls-1" d="M22.68,14.63a.59.59,0,0,0-.64.63c0,.77,0,1.54,0,2.31v.66a4,4,0,0,1-.27-.33c-.77-1-1.51-2-2.31-3a.85.85,0,0,0-.73-.26c-.2.06-.35.39-.44.63a1.87,1.87,0,0,0,0,.67c0,1.37,0,2.73,0,4.09,0,.54.4.86.84.71a.68.68,0,0,0,.45-.72c0-.91,0-1.81,0-2.72l.11,0c.81,1.05,1.61,2.11,2.45,3.14a.93.93,0,0,0,.72.29.79.79,0,0,0,.46-.57c0-1.66,0-3.31,0-5A.56.56,0,0,0,22.68,14.63Z"/><path class="cls-1" d="M14.68,19.53c-.62,0-1.24,0-1.92,0v-.63c0-1.18,0-2.37,0-3.55,0-.47-.26-.73-.65-.72a.6.6,0,0,0-.64.64c0,1.63,0,3.27,0,4.9a.59.59,0,0,0,.63.64h2.64a.59.59,0,0,0,.6-.57A.61.61,0,0,0,14.68,19.53Z"/><path class="cls-1" d="M16.61,14.61c-.46,0-.63.17-.63.65,0,.8,0,1.61,0,2.41s0,1.67,0,2.5c0,.47.18.63.64.64s.65-.19.65-.63V15.23C17.27,14.78,17,14.59,16.61,14.61Z"/><path class="cls-1" d="M19.83,0A19.83,19.83,0,1,0,39.66,19.83,19.83,19.83,0,0,0,19.83,0ZM31.34,22.18a21.57,21.57,0,0,1-7.24,7c-1.42.89-2.93,1.65-4.39,2.47a.8.8,0,0,1-.91,0,.83.83,0,0,1-.28-.9c.09-.66.16-1.31.23-2s-.17-.88-.79-1A13.76,13.76,0,0,1,10.76,25a8.69,8.69,0,0,1-.21-14A14.33,14.33,0,0,1,19.92,7.8a14,14,0,0,1,9.81,3.8,8.64,8.64,0,0,1,2.8,6.62A8,8,0,0,1,31.34,22.18Z"/><path class="cls-1" d="M27.35,19.52H25.63V18.36c.58,0,1.13,0,1.69,0s.88-.25.87-.67-.32-.63-.86-.63h-1.7V15.9h1.84c.45,0,.75-.28.72-.66a.63.63,0,0,0-.7-.63H25c-.49,0-.72.23-.73.71,0,1.58,0,3.17,0,4.76,0,.51.24.72.76.73h2.3c.54,0,.84-.24.84-.65S27.9,19.53,27.35,19.52Z"/></g></svg>