<?xml version="1.0" encoding="utf-8"?><svg viewBox="0 0 100 100" xmlns="http://www.w3.org/2000/svg" width="200px" height="200px" xmlns:xlink="http://www.w3.org/1999/xlink" style="width:100%;height:100%;background-size:initial;background-repeat-y:initial;background-repeat-x:initial;background-position-y:initial;background-position-x:initial;background-origin:initial;background-image:initial;background-color:rgb(255, 255, 255);background-clip:initial;background-attachment:initial;animation-play-state:paused" ><g class="ldl-scale" style="transform-origin:50% 50%;transform:rotate(0deg) scale(0.8, 0.8);animation-play-state:paused" ><g style="animation-play-state:paused" ><path stroke-miterlimit="10" stroke-linejoin="round" stroke-linecap="round" stroke-width="3.5" stroke="#333" fill="#849b87" d="M55.8 45.6L50.1 47V25.2C50.1 11.6 80 9.4 80 9.4v15c.1 13.3-9.9 17.9-24.2 21.2z" style="stroke:rgb(51, 51, 51);fill:rgb(132, 155, 135);animation-play-state:paused" ></path>
<path stroke-miterlimit="10" stroke-linejoin="round" stroke-linecap="round" stroke-width="3.5" stroke="#333" fill="#abbd81" d="M44.2 45.6l5.7 1.3V25.1C49.9 11.5 20 9.3 20 9.3v15c-.1 13.4 9.9 18 24.2 21.3z" style="stroke:rgb(51, 51, 51);fill:rgb(171, 189, 129);animation-play-state:paused" ></path>
<path d="M50.2 68.2V42" stroke-miterlimit="10" stroke-linejoin="round" stroke-linecap="round" stroke-width="3.5" stroke="#333" fill="none" style="stroke:rgb(51, 51, 51);animation-play-state:paused" ></path></g>
<path stroke-miterlimit="10" stroke-linejoin="round" stroke-linecap="round" stroke-width="3.5" stroke="#333" fill="#66503a" d="M71.3 70.4c-1.8 0-3.5.3-5 1-1.4-4.1-5.4-7.4-10.7-8.8-1.7-.5-3.6-.7-5.6-.7-7.8 0-14.4 4-16.3 9.5-1.5-.6-3.2-1-5-1-1.4 0-2.7.2-3.9.6-3.8 1.2-6.9 4-8.3 7.7-.5 1.4-.8 2.8-.8 4.4 0 .6 0 1.1.1 1.6.5 3.4 4.4 6 9 6h50.3c4.5 0 8.4-2.4 9-5.7.1-.7.2-1.3.2-1.9 0-7-5.8-12.7-13-12.7z" style="stroke:rgb(51, 51, 51);fill:rgb(102, 80, 58);animation-play-state:paused" ></path>
<metadata xmlns:d="https://loading.io/stock/" style="animation-play-state:paused" ><d:name style="animation-play-state:paused" >leaf</d:name>


<d:tags style="animation-play-state:paused" >leaf,plant,leaves,tree,bud,burgreen,shoot,sprout,stem,grow,newbie,tender</d:tags>


<d:license style="animation-play-state:paused" >by</d:license>


<d:slug style="animation-play-state:paused" >jmd6bg</d:slug></metadata></g><!-- generated by https://loading.io/ --></svg>